<svg width="351" height="121" viewBox="0 0 351 121" fill="none" xmlns="http://www.w3.org/2000/svg">
<circle opacity="0.1" cx="76.467" cy="73.9389" r="47.0012" fill="url(#paint0_linear)"/>
<path d="M41.5362 94.316H40.5141V98.0928H39.4053V89.6846H40.5141V93.392H41.3803L44.3197 89.6846H45.6999L42.4891 93.7616L45.9367 98.0928H44.5796L41.5362 94.316ZM51.9079 91.8444V98.0928H50.8338V92.7279H48.7086L48.5816 95.0668C48.5123 96.1409 48.3313 96.9089 48.0387 97.3709C47.75 97.8329 47.2899 98.0735 46.6585 98.0928H46.2312V97.1515L46.5373 97.1284C46.8838 97.0899 47.1321 96.8897 47.2822 96.5278C47.4324 96.1659 47.5286 95.496 47.571 94.5181L47.6865 91.8444H51.9079ZM57.6654 91.8444H58.7338V98.0928H57.6654V93.5364L54.7838 98.0928H53.7154V91.8444H54.7838V96.4065L57.6654 91.8444ZM63.0418 98.2083C62.1948 98.2083 61.5057 97.9311 60.9744 97.3767C60.4431 96.8185 60.1775 96.0735 60.1775 95.1418V94.9455C60.1775 94.3256 60.2949 93.7732 60.5297 93.2881C60.7684 92.7992 61.0995 92.418 61.523 92.1447C61.9503 91.8675 62.4123 91.7289 62.909 91.7289C63.7213 91.7289 64.3527 91.9965 64.8031 92.5316C65.2536 93.0667 65.4788 93.8329 65.4788 94.83V95.2746H61.2458C61.2612 95.8906 61.4402 96.3892 61.7829 96.7703C62.1294 97.1476 62.5683 97.3363 63.0995 97.3363C63.4768 97.3363 63.7964 97.2593 64.0582 97.1053C64.32 96.9513 64.549 96.7472 64.7454 96.4931L65.3979 97.0013C64.8743 97.806 64.089 98.2083 63.0418 98.2083ZM62.909 92.6067C62.4778 92.6067 62.1159 92.7645 61.8233 93.0802C61.5307 93.392 61.3498 93.8309 61.2805 94.3969H64.4104V94.316C64.3796 93.7732 64.2333 93.3535 63.9715 93.0571C63.7098 92.7568 63.3556 92.6067 62.909 92.6067ZM71.8253 98.0928H70.757V95.4248H67.8869V98.0928H66.8128V91.8444H67.8869V94.5528H70.757V91.8444H71.8253V98.0928ZM78.1892 92.7106H76.093V98.0928H75.0246V92.7106H72.9688V91.8444H78.1892V92.7106Z" fill="#222F38"/>
<circle cx="292.558" cy="58.5007" r="58.4426" fill="#EDF4F9"/>
<path d="M252.604 55.3465C252.14 55.3132 248.997 55.6625 248.566 55.5794C247.822 55.4297 247.855 57.7418 247.176 57.509C246.448 58.5403 245.472 59.2223 244.331 59.4219L244.066 59.4386C243.917 59.4386 243.768 59.4386 243.652 59.4552C243.636 59.4552 243.586 59.4552 243.569 59.4552C242.428 59.5883 241.567 60.3535 241.551 61.5012V62.1666L243.205 61.5012V61.5511V62.2498L244.86 61.5511V61.468V62.1334L246.465 61.468H247.243H248.02V60.4366C249.609 60.3701 250.999 59.5384 251.793 58.2908C251.296 58.3074 253.05 55.3964 252.604 55.3465Z" fill="#AF1F2D"/>
<path d="M267.826 50.5559L266.519 50.7223C264.07 50.7223 262.779 50.4561 261.39 51.7037C261.39 51.8035 261.373 54.0159 261.373 54.1157C261.373 55.2967 261.803 56.5111 262.564 57.3261C262.548 58.5238 261.572 59.472 260.364 59.472H260.397H259.702C258.461 59.472 257.452 60.3204 257.418 61.518V62.1834L259.073 61.518V61.4681V62.1335L260.728 61.4681V62.1335L262.382 61.4681H263.607C263.607 60.2538 264.335 59.2225 265.377 58.7234C265.725 58.5571 266.105 58.4573 266.519 58.4407C266.502 56.8105 267.776 55.4797 269.381 55.3466L270.225 54.0991L270.407 53.2507C270.407 52.0696 269.05 50.5559 267.826 50.5559Z" fill="#AF1F2D"/>
<path d="M236.141 74.3775L235.446 72.4978C235.049 71.4665 234.751 70.9009 234.188 70.5682C234.37 70.5017 234.552 70.4351 234.701 70.352C235.479 69.9527 235.942 69.1376 235.942 68.1895C235.942 67.208 235.495 66.4262 234.701 65.9937C233.99 65.6111 233.113 65.4614 231.607 65.4614H225.816V66.6258H227.14V74.444H225.816V75.4421H231.607V74.444H230.283V71.1171H230.416C231.26 71.1171 231.508 71.2502 231.773 71.5995C232.054 71.9988 232.451 72.897 232.765 73.8618L233.245 75.4255H237.067V74.3442L236.141 74.3775ZM232.021 69.7032C231.756 69.8696 231.326 69.9527 230.647 69.9527H230.283V66.6258H230.432C231.458 66.6258 231.839 66.6924 232.153 66.9086C232.484 67.1581 232.649 67.6073 232.649 68.256C232.616 68.9879 232.434 69.4537 232.021 69.7032Z" fill="#EF4136"/>
<path d="M239.664 72.7803C238.705 72.7803 237.977 73.3957 237.977 74.1942C237.977 75.0426 238.688 75.6248 239.664 75.6248C240.624 75.6248 241.352 75.0093 241.352 74.1942C241.352 73.3957 240.624 72.7803 239.664 72.7803Z" fill="#EF4136"/>
<path d="M248.617 66.6248L248.7 68.4546H251.132V65.6267H240.377V68.4546H242.76L242.842 66.6248H244.183V74.443H242.528V75.4411H248.981V74.443H247.326V66.6248H248.617Z" fill="#EF4136"/>
<path d="M257.75 66.7911V65.6267H251.959V66.7911H253.283V74.443H251.959V75.4411H257.75V74.443H256.592V66.7911H257.75Z" fill="#EF4136"/>
<path d="M269.829 71.6154V70.6173H264.203V71.6154L265.692 71.6486V74.1771C265.262 74.3268 264.881 74.3767 264.451 74.3767C262.433 74.3767 261.258 72.996 261.258 70.5508C261.258 68.7709 261.837 66.6583 264.534 66.6583C265.08 66.6583 265.527 66.7248 266.073 66.9078L266.222 68.6212H268.505V66.1426L268.389 66.0761C266.867 65.5771 265.792 65.3774 264.369 65.3774C262.648 65.3774 261.357 65.6935 260.298 66.4088C258.892 67.3403 258.081 68.8707 258.081 70.6173C258.081 72.131 258.644 73.3953 259.719 74.2769C260.811 75.1751 262.284 75.6243 264.269 75.6243C265.725 75.6243 266.635 75.4746 268.422 74.9256L268.671 74.8757V71.5987H269.829V71.6154Z" fill="#EF4136"/>
<path d="M277.389 72.4468L277.307 74.443H274.626V70.9497H278.101V69.7853H274.626V66.6248H277.042L277.125 68.4546H279.59V65.6267H270.159V66.7911H271.482V74.443H270.159V75.4411H279.755V72.4468H277.389Z" fill="#EF4136"/>
<path d="M291.057 74.376L290.362 72.4963C289.965 71.465 289.667 70.8994 289.105 70.5667C289.287 70.5002 289.469 70.4337 289.618 70.3505C290.395 69.9513 290.859 69.1362 290.859 68.188C290.859 67.2066 290.412 66.4248 289.618 65.9923C288.906 65.6097 288.029 65.46 286.524 65.46H280.915V66.6244H282.238V74.4426H280.915V75.4406H286.706V74.4426H285.382V71.1157H285.514C286.358 71.1157 286.606 71.2488 286.871 71.5981C287.152 71.9973 287.55 72.8956 287.864 73.8604L288.344 75.424H292V74.3428L291.057 74.376ZM287.119 69.7018C286.855 69.8681 286.424 69.9513 285.746 69.9513H285.382V66.6244H285.531C286.557 66.6244 286.937 66.6909 287.252 66.9072C287.583 67.1567 287.748 67.6058 287.748 68.2546C287.732 68.9865 287.533 69.4522 287.119 69.7018Z" fill="#EF4136"/>
<path d="M277.142 53.4841H276.133C274.909 53.4841 273.916 52.486 273.916 51.2717C273.916 50.9223 273.916 50.6895 273.933 50.4732H274.776C275.902 50.4732 276.911 49.6914 277.109 48.5769C277.374 47.113 276.249 45.8156 274.826 45.8156H259.587C259.124 45.8156 258.76 45.433 258.76 44.9838C258.76 44.5181 259.14 44.1521 259.587 44.1521H267.149C267.43 44.1521 267.711 44.0024 267.827 43.7362C268.075 43.2039 267.678 42.655 267.165 42.655H259.67C258.545 42.655 257.535 43.4368 257.337 44.5513C257.072 46.0152 258.197 47.3127 259.62 47.3127L274.876 47.3293C275.339 47.3293 275.686 47.7119 275.686 48.1444C275.686 48.6101 275.306 48.9595 274.876 48.9595H257.833C253.961 48.9595 255.252 44.6012 253.415 42.5386C253.349 42.472 253.266 42.3888 253.2 42.3223C253.217 42.3057 253.25 42.2558 253.266 42.2225C253.415 42.0063 253.498 41.79 253.498 41.5072C253.498 41.424 253.498 41.3575 253.482 41.2743L253.415 41.1579C253.266 40.7254 252.919 40.4093 252.456 40.3262L251.099 41.5904C250.619 41.5904 250.139 41.6569 249.643 41.7734L247.624 42.4221C247.641 42.7548 247.492 42.9212 247.277 43.0542L245.192 43.6531C245.242 43.9192 245.357 44.1854 245.573 44.3184C245.589 44.3351 245.622 44.3351 245.639 44.3684L246.201 46.4809H246.681C246.681 46.431 246.681 46.1981 246.681 46.1981C246.681 45.6658 246.996 45.1834 247.492 45.0171C248.584 44.6345 249.577 45.6825 249.097 46.7804C248.898 47.2295 248.452 47.4956 247.972 47.4956H247.906C247.906 47.4956 247.906 47.4956 247.889 47.4956H246.466L246.863 48.9927H250.023H250.437C250.437 48.9927 250.437 48.9927 250.454 48.9927C250.454 48.9927 250.47 48.9927 250.503 48.9927C251.049 49.0094 251.479 49.4419 251.479 49.9742V49.9908C251.479 50.4399 251.612 51.5212 250.768 52.3862C249.825 53.3676 248.534 53.9498 247.161 53.9498C246.383 53.9498 245.655 53.7668 244.993 53.4341L244.133 50.2237C244.133 50.2237 243.802 48.8264 242.627 49.1258L242.925 50.1738C242.263 49.1258 241.072 49.6581 241.072 49.6581C241.072 49.6581 241.486 49.9076 241.552 50.1239C241.618 50.3401 241.783 50.9722 241.783 50.9722C241.783 50.9722 241.436 50.6562 240.559 50.8891C240.559 50.8891 240.857 51.1386 240.956 51.5545C241.055 51.9703 241.254 53.5506 242.296 53.2844C242.296 53.2844 242.247 54.0829 241.237 54.1661C241.237 54.1661 241.949 55.1309 243.256 55.0311C242.743 55.4303 242.032 55.4636 242.032 55.4636C242.032 55.4636 246.913 58.1251 251.314 58.1251C257.221 58.1251 259.339 55.5467 261.54 53.5672C262.929 52.3363 264.369 51.3049 266.834 51.3049H267.281C268.522 51.3049 269.515 52.3196 269.515 53.5506V53.9165V53.9332V55.3138V55.9792C269.465 57.1935 270.458 58.2082 271.666 58.2582H271.682H271.699C271.848 58.2249 271.997 58.1916 272.112 58.175C272.179 58.1583 272.245 58.1583 272.278 58.1251C272.344 58.1084 272.443 58.0752 272.443 58.0752H272.51C272.559 58.0585 272.576 58.0585 272.609 58.0419C272.956 57.9088 273.254 57.7258 273.535 57.5928C273.585 57.5595 273.635 57.5262 273.684 57.5096C273.817 57.4431 273.966 57.4098 274.115 57.4098H274.181C274.611 57.4098 275.025 57.6926 275.107 58.1251C275.207 58.5908 274.958 58.9901 274.545 59.173C274.528 59.1897 274.495 59.1897 274.479 59.1897C274.115 59.3228 273.056 59.4226 272.179 59.4226C270.028 59.4226 269.961 61.3189 269.961 61.3189V61.951L271.616 61.3189V61.5351V62.2338L273.271 61.5351V61.5684V62.2504L274.876 61.5684H276.315C276.381 59.905 277.738 58.5742 279.393 58.5742V55.7131C279.36 54.4655 278.367 53.4841 277.142 53.4841Z" fill="#EF4136"/>
<g clip-path="url(#clip0)">
<path d="M71.8629 73.8132C71.488 73.8132 71.1842 74.117 71.1842 74.4918V79.9397C71.1842 80.143 71.0189 80.3084 70.8157 80.3084H67.1926V67.008C67.1926 66.6332 66.8888 66.3293 66.5139 66.3293C66.139 66.3293 65.8352 66.6332 65.8352 67.008V80.3084H57.6888V70.9336C57.6888 70.5588 57.385 70.255 57.0101 70.255C56.6352 70.255 56.3314 70.5588 56.3314 70.9336V80.3084H53.6279C53.2531 80.3084 52.9492 80.6123 52.9492 80.9871C52.9492 81.3619 53.2531 81.6657 53.6279 81.6657H70.8159C71.7676 81.6657 72.5419 80.8913 72.5419 79.9397V74.4918C72.5417 74.117 72.2378 73.8132 71.8629 73.8132Z" fill="#EB4745"/>
<path d="M68.9775 60.3804C68.9733 60.3786 68.9689 60.3768 68.9646 60.3752L60.9003 57.2521V56.7822H63.8664C64.8182 56.7822 65.5924 56.0078 65.5924 55.0562V50.1354C65.9598 49.6449 66.1633 49.0459 66.1633 48.4184C66.1633 47.791 65.9598 47.192 65.5924 46.7016V43.9138C65.5924 39.1835 61.7441 35.3352 57.0137 35.3352C52.2836 35.3352 48.4354 39.1835 48.4354 43.9138V55.056C48.4354 56.0078 49.2097 56.7821 50.1614 56.7821H53.1184V57.2522L45.0627 60.3751C45.0585 60.3767 45.0542 60.3785 45.05 60.3802C44.9045 60.44 41.4863 61.8912 41.4863 65.8831V79.9394C41.4863 80.8912 42.2607 81.6655 43.2124 81.6655H50.4599C50.8347 81.6655 51.1385 81.3617 51.1385 80.9868C51.1385 80.612 50.8347 80.3082 50.4599 80.3082H48.1931V67.0079C48.1931 66.6331 47.8893 66.3292 47.5145 66.3292C47.1396 66.3292 46.8358 66.6331 46.8358 67.0079V80.3083H43.2123C43.0091 80.3083 42.8437 80.1429 42.8437 79.9396V65.8832C42.8437 62.8482 45.4044 61.7049 45.5621 61.6374L50.4017 59.7612L52.5278 64.0225C52.5278 64.0225 52.5278 64.0225 52.5278 64.0226C52.665 64.2976 52.9022 64.506 53.1885 64.6085C52.5057 65.6882 52.0735 66.7635 51.8785 67.3028C51.6799 67.852 51.9474 68.4559 52.4875 68.6774L54.4704 69.4906C54.7637 69.611 55.0982 69.5992 55.3874 69.4478C55.6714 69.2988 55.8738 69.0341 55.9423 68.7213C56.2011 67.542 56.6233 66.5458 57.0136 65.8007C57.4041 66.546 57.8263 67.5422 58.085 68.721C58.1535 69.0339 58.3557 69.2986 58.6398 69.4476C58.9253 69.5972 59.2599 69.6124 59.5569 69.4906L61.5401 68.6772C62.0801 68.4556 62.3474 67.8518 62.1489 67.3025C61.9536 66.7628 61.5213 65.6869 60.8382 64.6071C61.1227 64.5041 61.3582 64.2962 61.4949 64.0226L61.4949 64.0225L63.6211 59.7614L68.4653 61.6374C68.5865 61.6896 71.1835 62.8476 71.1835 65.8832V71.3244C71.1835 71.6992 71.4873 72.0031 71.8622 72.0031C72.2371 72.0031 72.5409 71.6992 72.5409 71.3244V65.8832C72.5412 61.8914 69.1231 60.4402 68.9775 60.3804ZM64.235 55.0561C64.235 55.2594 64.0696 55.4247 63.8664 55.4247H61.0055C62.2514 54.4426 63.1386 52.9823 63.364 51.299C63.642 51.2859 63.959 51.2278 64.2351 51.1303V55.0561H64.235ZM64.8059 48.4182C64.8059 49.1851 64.2301 49.8435 63.4219 49.9347V46.9022C64.2147 46.9901 64.8059 47.6382 64.8059 48.4182ZM50.1614 55.4247C49.9581 55.4247 49.7928 55.2593 49.7928 55.0561V43.9138C49.7928 39.932 53.0321 36.6926 57.0138 36.6926C60.9957 36.6926 64.2351 39.932 64.2351 43.9138V45.7064C63.9812 45.617 63.6693 45.5562 63.4127 45.5403C63.3559 45.0806 63.0334 44.682 62.5692 44.5409C62.5691 44.5409 62.5691 44.5409 62.5691 44.5409C61.5464 44.2302 60.4207 43.5727 59.4507 42.5724C58.9918 42.0993 58.2467 42.0876 57.7708 42.5271C57.5972 42.6873 54.9398 45.9277 51.3916 47.2377C50.9216 47.4114 50.6057 47.8646 50.6057 48.3657V50.4557C50.6057 52.468 51.5475 54.2747 53.0238 55.4247H50.1614ZM51.963 50.4557V48.4732C52.3525 48.3251 52.7322 48.1565 53.1004 47.9727C55.6776 46.6853 57.6923 44.6459 58.5937 43.6364C59.8418 44.8803 61.123 45.4794 61.9132 45.7545C61.9659 45.7729 62.0163 45.7897 62.0645 45.8053V46.2585V50.4557C62.0645 53.1682 59.8583 55.4247 57.0955 55.4247C53.9226 55.4247 51.963 52.9415 51.963 50.4557ZM59.5428 56.2893V57.4767L57.0115 60.6012L54.4757 57.4711V56.271C55.2877 56.6078 56.1768 56.7822 57.0954 56.7822C57.9635 56.7822 58.7985 56.6028 59.5428 56.2893ZM51.6732 59.2692L53.582 58.53L56.0284 61.5495L56.0046 61.5664C55.6322 61.8308 53.9232 63.0447 53.6528 63.2367L51.6732 59.2692ZM54.6906 68.1138L53.246 67.5215C53.514 66.8272 54.0523 65.6113 54.8643 64.5805C55.1217 64.8583 55.4305 65.0836 55.7736 65.2436C55.3847 65.9975 54.9727 66.9722 54.6906 68.1138ZM57.0093 64.1607C56.5001 64.1607 55.9975 63.9074 55.698 63.449L57.0115 62.5162C58.083 63.277 57.8007 63.0766 58.3219 63.4469C58.0263 63.9009 57.5268 64.1607 57.0093 64.1607ZM59.3372 68.1138C59.0547 66.9705 58.6418 65.9945 58.2524 65.2399C58.5945 65.0791 58.9027 64.8532 59.1592 64.575C59.9734 65.6066 60.5132 66.8256 60.7818 67.5214L59.3372 68.1138ZM60.3703 63.2367C59.878 62.8871 58.4755 61.891 57.9918 61.5475L60.4376 58.5286L62.3499 59.2692L60.3703 63.2367Z" fill="#EB4745"/>
</g>
<path d="M212.39 59.3414C212.606 59.1259 212.606 58.7764 212.39 58.5609L208.878 55.0485C208.662 54.8329 208.313 54.8329 208.097 55.0485C207.882 55.264 207.882 55.6135 208.097 55.829L211.219 58.9512L208.097 62.0733C207.882 62.2888 207.882 62.6383 208.097 62.8538C208.313 63.0694 208.662 63.0694 208.878 62.8538L212.39 59.3414ZM88.1455 59.5031L212 59.5031L212 58.3992L88.1455 58.3992L88.1455 59.5031Z" fill="#EB4745"/>
<path d="M153.468 46.2903H150.379V48.8257H148.618V46.2903H146.71V44.8336H148.618V43.5705H146.71V42.123H148.618V35.402H153.569C155.007 35.402 156.147 35.7677 156.989 36.4991C157.832 37.2305 158.253 38.2201 158.253 39.4678C158.253 40.777 157.847 41.7881 157.036 42.501C156.23 43.2079 155.084 43.5644 153.597 43.5705H150.379V44.8336H153.468V46.2903ZM150.379 42.123H153.569C154.522 42.123 155.247 41.8987 155.745 41.45C156.243 41.0013 156.492 40.3467 156.492 39.4862C156.492 38.7056 156.233 38.0756 155.717 37.5962C155.201 37.1107 154.503 36.8648 153.624 36.8587H150.379V42.123Z" fill="#222F38"/>
<defs>
<linearGradient id="paint0_linear" x1="76.467" y1="26.9377" x2="43.125" y2="112.079" gradientUnits="userSpaceOnUse">
<stop stop-color="#ED5958"/>
<stop offset="1" stop-color="#ED5958" stop-opacity="0.77"/>
</linearGradient>
<clipPath id="clip0">
<rect width="46.3305" height="46.3305" fill="white" transform="translate(33.8486 35.3352)"/>
</clipPath>
</defs>
</svg>
