<svg width="81" height="60" viewBox="0 0 81 60" fill="none" xmlns="http://www.w3.org/2000/svg">
<mask id="path-1-inside-1" fill="white">
<path d="M0.13623 0.57666H48.7596V30.7637H19.2614L11.4705 37.1146C10.8686 37.6053 9.96087 37.3096 9.76345 36.5586L8.24013 30.7637H0.13623V0.57666Z"/>
</mask>
<path d="M0.13623 0.57666H48.7596V30.7637H19.2614L11.4705 37.1146C10.8686 37.6053 9.96087 37.3096 9.76345 36.5586L8.24013 30.7637H0.13623V0.57666Z" fill="white"/>
<path d="M0.13623 0.57666V-1.02469H-1.46511V0.57666H0.13623ZM48.7596 0.57666H50.361V-1.02469H48.7596V0.57666ZM48.7596 30.7637V32.365H50.361V30.7637H48.7596ZM0.13623 30.7637H-1.46511V32.365H0.13623V30.7637ZM8.24013 30.7637L9.78886 30.3565L9.47493 29.1623H8.24013V30.7637ZM19.2614 30.7637V29.1623H18.6914L18.2496 29.5225L19.2614 30.7637ZM11.4705 37.1146L10.4587 35.8734L11.4705 37.1146ZM9.76345 36.5586L11.3122 36.1514L9.76345 36.5586ZM0.13623 2.17801H48.7596V-1.02469H0.13623V2.17801ZM47.1583 0.57666V30.7637H50.361V0.57666H47.1583ZM1.73758 30.7637V0.57666H-1.46511V30.7637H1.73758ZM8.24013 29.1623H0.13623V32.365H8.24013V29.1623ZM48.7596 29.1623H19.2614V32.365H48.7596V29.1623ZM18.2496 29.5225L10.4587 35.8734L12.4823 38.3558L20.2732 32.0049L18.2496 29.5225ZM11.3122 36.1514L9.78886 30.3565L6.6914 31.1708L8.21472 36.9657L11.3122 36.1514ZM10.4587 35.8734C10.7596 35.6281 11.2135 35.7759 11.3122 36.1514L8.21472 36.9657C8.70827 38.8432 10.9775 39.5824 12.4823 38.3558L10.4587 35.8734Z" fill="#BED5E5" mask="url(#path-1-inside-1)"/>
<path d="M6.86426 8.21582H24.6011V10.0493H6.86426V8.21582Z" fill="#E0ECF3"/>
<path d="M6.86426 14.3276H24.6011V16.1611H6.86426V14.3276Z" fill="#E0ECF3"/>
<path d="M6.86426 20.4395H24.6011V22.2729H6.86426V20.4395Z" fill="#E0ECF3"/>
<rect width="35.1372" height="0.917059" transform="matrix(0.723448 0.690379 -0.690928 0.722924 36.7256 15.9321)" fill="#E0ECF3"/>
<rect width="31.6947" height="0.916945" transform="matrix(-0.82875 0.559619 0.560203 0.828356 49.6953 26.2007)" fill="#E0ECF3"/>
<rect width="31.6947" height="0.916945" transform="matrix(-0.82875 0.559619 0.560203 0.828356 68.9062 11.7871)" fill="#E0ECF3"/>
<rect x="47.8789" y="26.7471" width="0.917422" height="21.941" fill="#E0ECF3"/>
<rect x="51.123" y="29.4893" width="0.916726" height="21.9576" transform="rotate(-90 51.123 29.4893)" fill="#E0ECF3"/>
<path d="M49.1821 35.8382H49.1899C53.4638 35.8382 56.9287 32.376 56.9287 28.1053V28.0976C56.9364 23.823 53.4599 20.3569 49.1899 20.3569C44.9121 20.3569 41.4434 23.823 41.4434 28.0976V28.1053C41.4434 32.3721 44.9082 35.8382 49.1821 35.8382Z" fill="#EB4745"/>
<path d="M52.8257 27.6758V26.6313H52.0902V27.6758H51.0449V28.4108H52.0902V29.4553H52.8257V28.4108H53.871V27.6758H52.8257Z" fill="white"/>
<path d="M47.4832 27.5985V28.7977H49.086C49.0356 29.0492 48.9311 29.2813 48.7569 29.4786C48.1143 30.1826 46.9141 30.1749 46.2289 29.467C45.5437 28.7629 45.5476 27.6179 46.2483 26.9293C46.9103 26.2678 47.9749 26.2369 48.6253 26.8674L49.5002 25.9931C48.3233 24.9216 46.5193 24.941 45.3734 26.0666C44.1926 27.231 44.181 29.1304 45.3424 30.3141C46.5038 31.4979 48.5246 31.5056 49.6163 30.3335C50.2783 29.6256 50.468 28.6159 50.3093 27.6063L47.4832 27.5985Z" fill="white"/>
<path d="M75.3921 34.1186H75.397C78.0516 34.1186 80.2037 31.9682 80.2037 29.3156V29.3108C80.2085 26.6558 78.0492 24.5029 75.397 24.5029C72.7399 24.5029 70.5854 26.6558 70.5854 29.3108V29.3156C70.5854 31.9658 72.7375 34.1186 75.3921 34.1186Z" fill="#6D9ABA"/>
<path d="M75.3919 27.2922C76.0508 27.2922 76.1277 27.297 76.3898 27.3066C76.6279 27.3186 76.7625 27.3546 76.8491 27.3907C76.9621 27.4363 77.0463 27.4892 77.1328 27.5757C77.2194 27.6622 77.2723 27.7415 77.318 27.8592C77.3517 27.9457 77.3949 28.0755 77.4022 28.3181C77.4142 28.58 77.4166 28.6545 77.4166 29.3153C77.4166 29.976 77.4118 30.0505 77.4022 30.3124C77.3901 30.5503 77.3541 30.6848 77.318 30.7713C77.2723 30.8842 77.2194 30.9683 77.1328 31.0548C77.0463 31.1413 76.9669 31.1942 76.8491 31.2398C76.7625 31.2735 76.6327 31.3167 76.3898 31.3239C76.1277 31.336 76.0532 31.3384 75.3919 31.3384C74.7307 31.3384 74.6562 31.3335 74.3941 31.3239C74.156 31.3119 74.0214 31.2759 73.9348 31.2398C73.8218 31.1942 73.7376 31.1413 73.6511 31.0548C73.5645 30.9683 73.5116 30.889 73.4659 30.7713C73.4322 30.6848 73.389 30.5551 73.3817 30.3124C73.3697 30.0505 73.3673 29.976 73.3673 29.3153C73.3673 28.6545 73.3721 28.58 73.3817 28.3181C73.3938 28.0803 73.4298 27.9457 73.4659 27.8592C73.5116 27.7463 73.5645 27.6622 73.6511 27.5757C73.7376 27.4892 73.817 27.4363 73.9348 27.3907C74.0214 27.357 74.1512 27.3138 74.3941 27.3066C74.6538 27.2946 74.7331 27.2922 75.3919 27.2922ZM75.3919 26.8477C74.7211 26.8477 74.6369 26.8525 74.3748 26.8621C74.1127 26.8741 73.9324 26.9149 73.7761 26.975C73.6126 27.0399 73.4755 27.1216 73.3409 27.2585C73.2062 27.3955 73.1221 27.5324 73.0571 27.6934C72.997 27.8496 72.9537 28.0298 72.9441 28.2917C72.9321 28.5536 72.9297 28.6401 72.9297 29.308C72.9297 29.9784 72.9345 30.0625 72.9441 30.3244C72.9561 30.5863 72.997 30.7665 73.0571 30.9227C73.1221 31.0861 73.2038 31.223 73.3409 31.3576C73.4779 31.4921 73.615 31.5762 73.7761 31.6411C73.9324 31.7012 74.1127 31.7444 74.3748 31.754C74.6369 31.766 74.7235 31.7684 75.3919 31.7684C76.0604 31.7684 76.147 31.7636 76.4091 31.754C76.6712 31.742 76.8515 31.7012 77.0078 31.6411C77.1713 31.5762 77.3084 31.4945 77.443 31.3576C77.5801 31.2206 77.6618 31.0837 77.7268 30.9227C77.7869 30.7665 77.8302 30.5863 77.8398 30.3244C77.8518 30.0625 77.8542 29.976 77.8542 29.308C77.8542 28.6401 77.8494 28.5536 77.8398 28.2917C77.8278 28.0298 77.7869 27.8496 77.7268 27.6934C77.6618 27.53 77.5801 27.3931 77.443 27.2585C77.306 27.1216 77.1689 27.0399 77.0078 26.975C76.8515 26.9149 76.6712 26.8717 76.4091 26.8621C76.147 26.8525 76.0604 26.8477 75.3919 26.8477Z" fill="white"/>
<path d="M75.3917 28.0493C74.6896 28.0493 74.1245 28.6164 74.1245 29.3156C74.1245 30.0147 74.692 30.5818 75.3917 30.5818C76.089 30.5818 76.6589 30.0147 76.6589 29.3156C76.6589 28.6164 76.089 28.0493 75.3917 28.0493ZM75.3917 30.1373C74.9373 30.1373 74.5694 29.7697 74.5694 29.3156C74.5694 28.8614 74.9373 28.4914 75.3917 28.4914C75.8462 28.4914 76.2141 28.859 76.2141 29.3132C76.2141 29.7673 75.8462 30.1373 75.3917 30.1373Z" fill="white"/>
<path d="M76.7074 28.2922C76.8707 28.2922 77.0031 28.1598 77.0031 27.9964C77.0031 27.8331 76.8707 27.7007 76.7074 27.7007C76.544 27.7007 76.4116 27.8331 76.4116 27.9964C76.4116 28.1598 76.544 28.2922 76.7074 28.2922Z" fill="white"/>
<path d="M26.9991 47.6059H27.0052C30.3547 47.6059 33.0701 44.8926 33.0701 41.5456V41.5395C33.0731 38.1895 30.3517 35.4731 27.0021 35.4731C23.6496 35.4731 20.9312 38.1895 20.9312 41.5395V41.5456C20.9312 44.8926 23.6496 47.6059 26.9991 47.6059Z" fill="#6D9ABA"/>
<path d="M26.7687 43.9378H27.2298C27.2298 43.9378 27.3694 43.9166 27.4392 43.8408C27.5059 43.7681 27.4999 43.6407 27.4999 43.6407C27.4999 43.6407 27.4908 43.0253 27.776 42.9343C28.0581 42.8434 28.4222 43.5316 28.8045 43.7953C29.0957 43.9954 29.3172 43.9712 29.3172 43.9712L30.3457 43.956C30.3457 43.956 30.8828 43.9227 30.6279 43.5013C30.6097 43.4679 30.4792 43.189 29.8633 42.616C29.2171 42.0188 29.302 42.1128 30.0848 41.082C30.5581 40.4514 30.7462 40.0694 30.6886 39.8996C30.6309 39.742 30.2881 39.7844 30.2881 39.7844L29.123 39.7935C29.123 39.7935 29.0381 39.7844 28.9744 39.8208C28.9137 39.8602 28.8743 39.9451 28.8743 39.9451C28.8743 39.9451 28.6922 40.4302 28.4495 40.8455C27.9337 41.7186 27.7274 41.7672 27.6485 41.7095C27.4544 41.5853 27.4999 41.2033 27.4999 40.9334C27.4999 40.0906 27.6273 39.7359 27.2511 39.645C27.1267 39.6177 27.0326 39.5934 26.711 39.5934C26.3014 39.5874 25.9525 39.5934 25.7523 39.6935C25.6188 39.7541 25.5187 39.9027 25.5794 39.9087C25.6552 39.9178 25.8281 39.9572 25.9192 40.0815C26.0375 40.2422 26.0345 40.6 26.0345 40.6C26.0345 40.6 26.1012 41.5974 25.8767 41.7217C25.7189 41.8066 25.5096 41.6307 25.0514 40.8395C24.8178 40.4332 24.6419 39.9845 24.6419 39.9845C24.6419 39.9845 24.6085 39.8996 24.5478 39.8572C24.475 39.8057 24.3718 39.7844 24.3718 39.7844L23.2735 39.7905C23.2735 39.7905 23.1067 39.7966 23.049 39.8663C22.9974 39.9269 23.043 40.0603 23.043 40.0603C23.043 40.0603 23.9016 42.0673 24.8755 43.0799C25.7553 43.9985 26.7687 43.9378 26.7687 43.9378Z" fill="white"/>
<path d="M63.6829 7.29932C60.3295 7.29932 57.6104 10.0164 57.6104 13.3672C57.6104 16.712 60.3295 19.429 63.6768 19.429H63.6829C67.0302 19.429 69.7493 16.712 69.7493 13.3672C69.7554 10.0164 67.0302 7.29932 63.6829 7.29932Z" fill="#00A7ED"/>
<path d="M66.2166 10.8835L60.4506 13.0638C60.135 13.1548 60.1441 13.4641 60.3778 13.5429L61.8223 13.9917L62.3777 15.6838C62.4444 15.8688 62.5021 15.9385 62.6174 15.9416C62.7358 15.9416 62.7843 15.8991 62.9087 15.7899C63.0575 15.6504 63.276 15.4351 63.631 15.0925L65.1332 16.2023C65.4094 16.354 65.6127 16.2751 65.6795 15.9446L66.6233 11.2868C66.7204 10.8835 66.4867 10.7652 66.2166 10.8835ZM62.0499 13.8916L65.3335 11.8296C65.4974 11.7204 65.5429 11.8447 65.4731 11.9266L62.7449 14.3738L62.6053 15.5989L62.0499 13.8916Z" fill="white"/>
<path d="M63.6871 47.6772H63.6919C66.3465 47.6772 68.4986 45.5268 68.4986 42.8742V42.8694C68.5034 40.2144 66.3441 38.0615 63.6919 38.0615C61.0348 38.0615 58.8804 40.2144 58.8804 42.8694V42.8742C58.8804 45.5244 61.0324 47.6772 63.6871 47.6772Z" fill="#00A7ED"/>
<path d="M66.3999 41.3556C66.2076 41.4421 65.9984 41.4998 65.7771 41.5262C66.0008 41.3941 66.1715 41.1778 66.2556 40.9279C66.0464 41.0529 65.8132 41.1442 65.5655 41.1898C65.3684 40.9784 65.0846 40.8486 64.772 40.8486C64.1733 40.8486 63.6876 41.334 63.6876 41.9323C63.6876 42.0164 63.6996 42.0981 63.714 42.1773C62.8123 42.1317 62.0116 41.6992 61.4778 41.0457C61.384 41.2042 61.3311 41.3892 61.3311 41.5911C61.3311 41.9659 61.5235 42.2999 61.812 42.4921C61.6341 42.4873 61.4682 42.4392 61.3191 42.3551C61.3191 42.3599 61.3191 42.3624 61.3191 42.3696C61.3191 42.8958 61.6942 43.3307 62.1919 43.434C62.1006 43.4604 62.0068 43.4724 61.9082 43.4724C61.8409 43.4724 61.7712 43.4652 61.7038 43.4532C61.8409 43.8857 62.2424 44.1956 62.7161 44.2076C62.3434 44.4984 61.8794 44.6738 61.3696 44.6738C61.283 44.6738 61.1941 44.669 61.1123 44.6594C61.5932 44.9669 62.1631 45.1471 62.7763 45.1471C64.7744 45.1471 65.8613 43.4964 65.8613 42.0644C65.8613 42.0188 65.8613 41.9707 65.8565 41.9251C66.0705 41.7641 66.2556 41.5719 66.3999 41.3556Z" fill="white"/>
<path d="M48.7696 59.8267H48.7756C52.126 59.8267 54.8421 57.1127 54.8421 53.7649V53.7588C54.8481 50.408 52.1229 47.6909 48.7756 47.6909C45.4222 47.6909 42.7031 50.408 42.7031 53.7588V53.7649C42.7031 57.1097 45.4192 59.8267 48.7696 59.8267Z" fill="#6D9ABA"/>
<path d="M49.3489 57.616V54.247H50.4718L50.6387 52.943H49.3489V52.1C49.3489 51.7179 49.4551 51.4571 50.0044 51.4571H50.6842V50.2806C50.5628 50.2654 50.1531 50.229 49.6706 50.229C48.6691 50.229 47.9833 50.8416 47.9833 51.9605V52.943H46.8301V54.247H47.9833V57.613H49.3489V57.616Z" fill="white"/>
<path d="M35.2059 18.2456H35.21C37.4901 18.2456 39.3422 16.3949 39.3422 14.1166C39.3464 11.8341 37.4901 9.9834 35.21 9.9834C32.9259 9.9834 31.0737 11.8341 31.0737 14.1166C31.0737 16.3949 32.9259 18.2456 35.2059 18.2456Z" fill="#F36F0D"/>
<path d="M35.1926 14.2409C35.8355 14.2409 36.3564 13.7203 36.3564 13.0779C36.3564 12.4356 35.8355 11.915 35.1926 11.915C34.5497 11.915 34.0288 12.4356 34.0288 13.0779C34.0288 13.7203 34.5497 14.2409 35.1926 14.2409ZM35.1926 12.5946C35.4572 12.5946 35.6742 12.8094 35.6742 13.0759C35.6742 13.3403 35.4593 13.5572 35.1926 13.5572C34.928 13.5572 34.711 13.3423 34.711 13.0759C34.711 12.8136 34.9259 12.5946 35.1926 12.5946Z" fill="white"/>
<path d="M35.6623 15.1867C35.9 15.1309 36.1274 15.04 36.3362 14.9058C36.4953 14.8046 36.5449 14.5959 36.4437 14.4369C36.3424 14.2778 36.1336 14.2283 35.9744 14.3295C35.499 14.629 34.885 14.629 34.4096 14.3295C34.2504 14.2283 34.0417 14.2778 33.9404 14.4369C33.8391 14.5959 33.8887 14.8046 34.0479 14.9058C34.2566 15.0359 34.4882 15.1309 34.7217 15.1867L34.0706 15.8353C33.9362 15.9695 33.9362 16.1844 34.0706 16.3166C34.1367 16.3827 34.2236 16.4178 34.3125 16.4178C34.4013 16.4178 34.4882 16.3847 34.5543 16.3166L35.193 15.6783L35.8318 16.3166C35.9661 16.4508 36.1811 16.4508 36.3134 16.3166C36.4478 16.1823 36.4478 15.9675 36.3134 15.8353L35.6623 15.1867Z" fill="white"/>
</svg>
