<svg width="21" height="21" viewBox="0 0 21 21" fill="none" xmlns="http://www.w3.org/2000/svg">
<path d="M10.8618 2.22109C13.51 2.22109 13.8192 2.24042 14.8727 2.27908C15.8295 2.3274 16.3707 2.47237 16.7187 2.61734C17.1729 2.80098 17.5112 3.0136 17.8591 3.36153C18.207 3.70946 18.4197 4.0284 18.6033 4.50198C18.7386 4.84991 18.9126 5.37181 18.9416 6.34795C18.9899 7.40141 18.9996 7.70102 18.9996 10.3588C18.9996 13.0166 18.9802 13.3163 18.9416 14.3697C18.8932 15.3265 18.7483 15.8678 18.6033 16.2157C18.4197 16.6699 18.207 17.0082 17.8591 17.3561C17.5112 17.7041 17.1922 17.9167 16.7187 18.1003C16.3707 18.2356 15.8488 18.4096 14.8727 18.4386C13.8192 18.4869 13.5196 18.4966 10.8618 18.4966C8.204 18.4966 7.9044 18.4772 6.85094 18.4386C5.89412 18.3903 5.3529 18.2453 5.00496 18.1003C4.55072 17.9167 4.21245 17.7041 3.86452 17.3561C3.51659 17.0082 3.30396 16.6893 3.12033 16.2157C2.98503 15.8678 2.81106 15.3459 2.78207 14.3697C2.73374 13.3163 2.72408 13.0166 2.72408 10.3588C2.72408 7.70102 2.74341 7.40141 2.78207 6.34795C2.83039 5.39114 2.97536 4.84991 3.12033 4.50198C3.30396 4.04773 3.51659 3.70946 3.86452 3.36153C4.21245 3.0136 4.53139 2.80098 5.00496 2.61734C5.3529 2.48204 5.87479 2.30807 6.85094 2.27908C7.89473 2.23075 8.21367 2.22109 10.8618 2.22109ZM10.8618 0.433105C8.16535 0.433105 7.82708 0.452435 6.77362 0.491094C5.72016 0.539418 4.9953 0.703719 4.36709 0.945339C3.70988 1.20629 3.15899 1.53489 2.61776 2.08578C2.07654 2.63667 1.73827 3.18757 1.47732 3.83511C1.2357 4.46332 1.06174 5.18818 1.02308 6.24164C0.974753 7.2951 0.965088 7.64303 0.965088 10.3298C0.965088 13.0263 0.984417 13.3646 1.02308 14.418C1.0714 15.4715 1.2357 16.1964 1.47732 16.8246C1.73827 17.4818 2.06687 18.0327 2.61776 18.5739C3.16866 19.1151 3.71955 19.4534 4.36709 19.7143C4.9953 19.956 5.72016 20.1299 6.77362 20.1686C7.82708 20.2169 8.17501 20.2266 10.8618 20.2266C13.5486 20.2266 13.8966 20.2072 14.95 20.1686C16.0035 20.1203 16.7283 19.956 17.3565 19.7143C18.0138 19.4534 18.5646 19.1248 19.1059 18.5739C19.6568 18.023 19.9854 17.4721 20.2463 16.8246C20.4879 16.1964 20.6619 15.4715 20.7006 14.418C20.7489 13.3646 20.7585 13.0166 20.7585 10.3298C20.7585 7.64303 20.7392 7.2951 20.7006 6.24164C20.6522 5.18818 20.4879 4.46332 20.2463 3.83511C19.9854 3.1779 19.6568 2.62701 19.1059 2.08578C18.555 1.53489 18.0041 1.20629 17.3565 0.945339C16.7283 0.703719 16.0035 0.529753 14.95 0.491094C13.8966 0.452435 13.5486 0.433105 10.8618 0.433105Z" fill="#D5EBFE"/>
<path d="M10.8626 5.26538C8.04051 5.26538 5.76929 7.54627 5.76929 10.3587C5.76929 13.1712 8.05017 15.4521 10.8626 15.4521C13.6654 15.4521 15.956 13.1712 15.956 10.3587C15.956 7.54627 13.6654 5.26538 10.8626 5.26538ZM10.8626 13.6641C9.03598 13.6641 7.55727 12.1854 7.55727 10.3587C7.55727 8.53207 9.03598 7.0437 10.8626 7.0437C12.6893 7.0437 14.168 8.52241 14.168 10.3491C14.168 12.1757 12.6893 13.6641 10.8626 13.6641Z" fill="#D5EBFE"/>
<path d="M16.1487 6.24155C16.8053 6.24155 17.3375 5.70932 17.3375 5.05278C17.3375 4.39624 16.8053 3.86401 16.1487 3.86401C15.4922 3.86401 14.96 4.39624 14.96 5.05278C14.96 5.70932 15.4922 6.24155 16.1487 6.24155Z" fill="#D5EBFE"/>
</svg>
