<svg width="34" height="35" viewBox="0 0 34 35" fill="none" xmlns="http://www.w3.org/2000/svg">
<path d="M20.2913 12.9365C19.93 12.9365 19.6367 13.2298 19.6367 13.5911C19.6367 13.9524 19.93 14.2456 20.2913 14.2456C20.6526 14.2456 20.9458 13.9524 20.9458 13.5911C20.9458 13.2298 20.6526 12.9365 20.2913 12.9365Z" fill="#DB9E00"/>
<path d="M32.7461 29.5438L24.0091 20.8068C25.4324 18.6629 26.1821 16.1801 26.1821 13.5911C26.1821 6.37265 20.3095 0.5 13.0911 0.5C5.87265 0.5 0 6.37265 0 13.5911C0 20.8095 5.87265 26.6821 13.0911 26.6821C15.6802 26.6821 18.1629 25.9323 20.3068 24.5091L22.7218 26.9241C22.7221 26.9244 22.7224 26.9248 22.7228 26.9252L29.0437 33.2461C29.5384 33.7407 30.1958 34.0131 30.8949 34.0131C31.594 34.0131 32.2514 33.7407 32.7459 33.2462C33.2406 32.7519 33.5131 32.0944 33.5131 31.3949C33.5131 30.6954 33.2406 30.038 32.7461 29.5438ZM19.999 23.1297C19.999 23.1297 19.9989 23.1297 19.9988 23.1298C17.9784 24.5973 15.5898 25.373 13.0911 25.373C6.59449 25.373 1.30911 20.0876 1.30911 13.5911C1.30911 7.09449 6.59449 1.80911 13.0911 1.80911C19.5876 1.80911 24.873 7.09449 24.873 13.5911C24.873 16.0898 24.0973 18.4784 22.6297 20.4989C21.8955 21.5104 21.0104 22.3955 19.999 23.1297ZM21.3722 23.7231C22.0497 23.1689 22.6689 22.5496 23.2231 21.8722L25.0801 23.7292C24.5154 24.3958 23.8958 25.0154 23.2292 25.5801L21.3722 23.7231ZM31.8204 32.3204C31.573 32.5678 31.2443 32.704 30.8949 32.704C30.5455 32.704 30.2169 32.5678 29.9694 32.3204L24.1573 26.5083C24.8202 25.9394 25.4394 25.3203 26.0082 24.6574L31.8205 30.4697C32.0678 30.7167 32.204 31.0452 32.204 31.3949C32.204 31.7446 32.0678 32.0731 31.8204 32.3204Z" fill="#DB9E00"/>
<path d="M13.091 3.11816C7.31622 3.11816 2.61816 7.81622 2.61816 13.591C2.61816 19.3658 7.31622 24.0639 13.091 24.0639C18.8658 24.0639 23.5639 19.3658 23.5639 13.591C23.5639 7.81622 18.8658 3.11816 13.091 3.11816ZM13.091 22.7548C8.03813 22.7548 3.92727 18.6439 3.92727 13.591C3.92727 8.53813 8.03813 4.42727 13.091 4.42727C18.1439 4.42727 22.2548 8.53813 22.2548 13.591C22.2548 18.6439 18.1439 22.7548 13.091 22.7548Z" fill="#DB9E00"/>
<path d="M20.4263 10.7812C19.8627 9.31418 18.8813 8.05993 17.5882 7.15409C16.2643 6.22659 14.7092 5.73633 13.0911 5.73633C12.7296 5.73633 12.4365 6.02944 12.4365 6.39088C12.4365 6.75233 12.7296 7.04543 13.0911 7.04543C15.7812 7.04543 18.2379 8.73536 19.2043 11.2507C19.3044 11.511 19.5524 11.6707 19.8155 11.6707C19.8935 11.6707 19.9729 11.6566 20.0501 11.627C20.3875 11.4973 20.556 11.1187 20.4263 10.7812Z" fill="#DB9E00"/>
</svg>
