<svg width="42" height="30" viewBox="0 0 42 30" fill="none" xmlns="http://www.w3.org/2000/svg">
<path d="M40.9477 15.7216C40.6609 15.1403 34.5236 5.02377 34.3681 4.77114C33.2225 2.91191 31.2366 1.80197 29.056 1.80197C28.7449 1.80197 28.4394 1.82555 28.1403 1.86978C28.14 1.8692 28.1392 1.86797 28.139 1.86765C27.6105 1.01132 26.6959 0.5 25.6924 0.5C24.108 0.5 22.8189 1.78903 22.8189 3.37352V8.39437H19.1088V3.37352C19.1088 1.78911 17.8198 0.5 16.2353 0.5C15.2336 0.5 14.3207 1.00944 13.7876 1.86978C13.4886 1.82555 13.1829 1.80197 12.8717 1.80197C10.6911 1.80197 8.70524 2.91199 7.55952 4.7713C7.54371 4.79694 7.49564 4.87506 6.34083 6.81102C6.14233 7.14382 6.25124 7.57457 6.58396 7.77307C6.91676 7.97149 7.3475 7.86282 7.54601 7.52993C8.49626 5.93701 8.72768 5.55082 8.75446 5.50733C9.64264 4.0659 11.1818 3.20532 12.8718 3.20532C15.5372 3.20532 17.7055 5.37369 17.7055 8.03896V8.03937V14.9541C16.0243 12.2123 12.9995 10.3794 9.55444 10.3794C7.99861 10.3794 6.5286 10.7535 5.22925 11.4159C5.56296 10.856 5.91549 10.2645 6.26926 9.67128C6.46768 9.3384 6.35876 8.90765 6.02588 8.70923C5.693 8.51081 5.26234 8.61973 5.06384 8.95261C3.57295 11.453 1.22639 15.2049 0.929944 15.8243C0.334111 17.0696 0 18.4634 0 19.9339C0 25.2022 4.28613 29.4883 9.55444 29.4883C14.8228 29.4883 19.1088 25.2022 19.1088 19.9339V18.0695H22.8189V19.9339C22.8189 25.2022 27.105 29.4883 32.3733 29.4883C37.6416 29.4883 41.9277 25.2022 41.9277 19.9339C41.9278 18.4229 41.5751 16.9929 40.9477 15.7216ZM17.7055 4.10275C17.0572 3.30817 16.2175 2.67615 15.2572 2.2771C15.5228 2.0388 15.8673 1.90335 16.2354 1.90335C17.046 1.90335 17.7055 2.56281 17.7055 3.37344V4.10275ZM9.55444 28.0848C5.05991 28.0848 1.40335 24.4284 1.40335 19.9338C1.40335 15.4393 5.05991 11.7827 9.55444 11.7827C14.049 11.7827 17.7055 15.4393 17.7055 19.9338C17.7055 24.4284 14.0489 28.0848 9.55444 28.0848ZM19.1087 13.9718V9.79764H22.8188V13.9718H19.1087ZM22.8189 16.6662H19.1088V15.3752H22.8189V16.6662ZM24.2223 3.37352C24.2223 2.56289 24.8817 1.90343 25.6924 1.90343C26.0616 1.90343 26.4072 2.03978 26.6714 2.27685C25.7108 2.6759 24.8707 3.30809 24.2223 4.10284V3.37352ZM24.2223 8.03937V8.03896C24.2223 5.37361 26.3906 3.20532 29.0559 3.20532C30.746 3.20532 32.2851 4.06598 33.1733 5.50733C33.2574 5.64401 35.0112 8.58509 36.6985 11.4159C35.399 10.7534 33.929 10.3793 32.3732 10.3793C28.9282 10.3793 25.9034 12.2123 24.2222 14.954V8.03937H24.2223ZM32.3734 28.0848C27.8788 28.0848 24.2223 24.4283 24.2223 19.9337C24.2223 15.4392 27.8789 11.7827 32.3734 11.7827C36.8679 11.7827 40.5244 15.4392 40.5244 19.9337C40.5244 24.4283 36.8678 28.0848 32.3734 28.0848Z" fill="#2B8EE0"/>
<path d="M38.5251 17.7226C38.3939 17.3581 37.9922 17.1687 37.6274 17.2998C37.2629 17.4309 37.0735 17.8328 37.2046 18.1974C37.4042 18.7529 37.5055 19.3371 37.5055 19.9338C37.5055 22.7636 35.2033 25.0659 32.3734 25.0659C29.5435 25.0659 27.2412 22.7636 27.2412 19.9338C27.2412 17.1039 29.5435 14.8016 32.3734 14.8016C33.7936 14.8016 35.1633 15.3983 36.1314 16.4385C36.3954 16.7222 36.8393 16.7382 37.1232 16.4741C37.4068 16.2101 37.4228 15.7662 37.1588 15.4824C35.9263 14.1579 34.182 13.3982 32.3734 13.3982C28.7696 13.3982 25.8379 16.3299 25.8379 19.9337C25.8379 23.5374 28.7696 26.4692 32.3734 26.4692C35.9771 26.4692 38.9089 23.5374 38.9089 19.9337C38.9089 19.1749 38.7798 18.4309 38.5251 17.7226Z" fill="#2B8EE0"/>
<path d="M9.55404 13.3984C5.9503 13.3984 3.01855 16.3302 3.01855 19.9339C3.01855 23.5377 5.9503 26.4694 9.55404 26.4694C13.1578 26.4694 16.0895 23.5377 16.0895 19.9339C16.0895 16.3302 13.1577 13.3984 9.55404 13.3984ZM9.55404 25.066C6.72416 25.066 4.4219 22.7638 4.4219 19.9338C4.4219 17.104 6.72408 14.8017 9.55404 14.8017C12.384 14.8017 14.6862 17.1039 14.6862 19.9338C14.6862 22.7638 12.3838 25.066 9.55404 25.066Z" fill="#2B8EE0"/>
</svg>
