<svg width="356" height="124" viewBox="0 0 356 124" fill="none" xmlns="http://www.w3.org/2000/svg">
<circle cx="53.551" cy="53.4045" r="52.656" fill="#EDF4F9"/>
<path d="M314.379 71.1972C313.953 71.1972 313.608 71.5423 313.608 71.9681V79.2161C313.608 79.4508 313.417 79.6418 313.182 79.6418H309.038V64.4602C309.038 64.0344 308.693 63.6893 308.267 63.6893C307.841 63.6893 307.496 64.0344 307.496 64.4602V79.6419H299.151L301.571 76.9797C301.835 76.6888 301.96 76.2744 301.904 75.8709C301.903 75.8631 301.902 75.8553 301.901 75.8474L299.596 62.2313L300.217 61.2965C300.56 61.5404 300.825 61.7751 301.321 61.7751C301.825 61.7751 302.297 61.4928 302.529 61.028V61.0279L304.96 56.1557L310.498 58.3003C310.698 58.3863 313.607 59.6964 313.607 63.1559V68.3704C313.607 68.796 313.952 69.1413 314.378 69.1413C314.804 69.1413 315.149 68.7961 315.149 68.3704V63.1559C315.149 58.5978 311.246 56.941 311.08 56.8726C311.076 56.8706 311.071 56.8686 311.066 56.8667L301.849 53.2973V51.1357C303.313 49.9972 304.328 48.3095 304.583 46.384C305.312 46.3326 305.99 46.06 306.543 45.5844C307.265 44.9633 307.68 44.0593 307.68 43.1045C307.68 42.3123 307.394 41.5557 306.884 40.9662V38.1104C306.884 32.8421 302.598 28.5559 297.33 28.5559C292.061 28.5559 287.775 32.8421 287.775 38.1104V41.0411C287.26 41.6246 286.98 42.3429 286.98 43.1044C286.98 44.0595 287.395 44.9634 288.117 45.5846C288.67 46.06 289.347 46.3323 290.076 46.3838C290.333 48.3453 291.378 50.0959 292.967 51.2497V53.2973L283.76 56.8666C283.755 56.8685 283.75 56.8704 283.745 56.8724C283.579 56.9408 279.676 58.5976 279.676 63.1557V79.2159C279.676 80.3009 280.559 81.1835 281.644 81.1835H288.989C289.415 81.1835 289.76 80.8384 289.76 80.4126C289.76 79.9869 289.415 79.6417 288.989 79.6417H287.33V64.4602C287.33 64.0344 286.985 63.6893 286.559 63.6893C286.133 63.6893 285.788 64.0344 285.788 64.4602V79.6419H281.644C281.409 79.6419 281.218 79.4509 281.218 79.2162V63.1558C281.218 59.6847 284.147 58.3775 284.327 58.3007L289.86 56.1554L292.292 61.0279C292.524 61.4938 292.997 61.7751 293.5 61.7751C293.994 61.7751 294.255 61.544 294.604 61.2965L295.225 62.2313L292.92 75.8475C292.919 75.8553 292.918 75.863 292.917 75.8708C292.861 76.2741 292.985 76.6887 293.25 76.9798L295.67 79.642H292.587C292.161 79.642 291.816 79.9872 291.816 80.4129C291.816 80.8387 292.161 81.1838 292.587 81.1838H313.182C314.267 81.1838 315.15 80.3011 315.15 79.2162V71.9682C315.149 71.5423 314.804 71.1972 314.379 71.1972ZM303.516 55.5965L301.25 60.1387C301.193 60.0987 299.992 59.2454 298.524 58.2028C299.161 57.4164 298.416 58.3363 301.323 54.7473L303.516 55.5965ZM298.959 60.4033L298.371 61.288H296.449L295.861 60.4033L297.41 59.3032L298.959 60.4033ZM294.508 53.5461V52.1033C295.445 52.4809 296.446 52.6559 297.423 52.6559C298.434 52.6559 299.425 52.4405 300.307 52.055V53.5523L297.41 57.1278L294.508 53.5461ZM306.138 43.1045C306.138 43.6095 305.919 44.0874 305.537 44.4154C305.285 44.6323 304.981 44.771 304.647 44.8252V41.3842C305.533 41.5281 306.138 42.263 306.138 43.1045ZM290.013 44.8252C289.117 44.6798 288.522 43.9389 288.522 43.1044C288.522 42.2803 289.206 41.6095 290.013 41.4229V44.8252ZM290.054 39.852C289.809 39.8802 289.527 39.9467 289.317 40.018V38.1104C289.317 33.6923 292.912 30.0978 297.33 30.0978C301.748 30.0978 305.342 33.6923 305.342 38.1104V39.9651C305.118 39.8969 304.886 39.8519 304.647 39.8307C304.647 39.0868 304.654 39.2303 302.22 36.614C301.773 36.1332 301.032 36.0325 300.469 36.4006C297.783 38.1551 294.507 39.0365 291.484 38.8194C290.821 38.7697 290.217 39.2065 290.054 39.852ZM291.555 45.4322V40.6225V40.3691C294.882 40.564 298.371 39.5754 301.19 37.7703C302.306 38.9686 302.91 39.5972 303.105 39.8363C303.105 40.4411 303.105 44.7398 303.105 45.4321C303.105 48.5617 300.554 51.1139 297.423 51.1139C293.909 51.114 291.555 48.3874 291.555 45.4322ZM293.571 60.1387L291.304 55.5965L293.493 54.7488L296.293 58.2051C294.869 59.2162 293.7 60.0469 293.571 60.1387ZM294.455 76.0138L296.687 62.8297H298.133L300.365 76.0138L297.41 79.2642L294.455 76.0138Z" fill="#EB4745"/>
<path d="M64.6036 53.4737C64.1403 53.4404 60.9965 53.7897 60.5663 53.7066C59.8218 53.5568 59.8548 55.869 59.1765 55.6362C58.4484 56.6675 57.4722 57.3495 56.3305 57.5491L56.0658 57.5658C55.9169 57.5658 55.768 57.5658 55.6521 57.5824C55.6356 57.5824 55.586 57.5824 55.5694 57.5824C54.4277 57.7155 53.5673 58.4807 53.5508 59.6284V60.2938L55.2054 59.6284V59.6783V60.377L56.86 59.6783V59.5952V60.2606L58.465 59.5952H59.2426H60.0203V58.5638C61.6087 58.4973 62.9986 57.6656 63.7928 56.418C63.2964 56.4346 65.0503 53.5236 64.6036 53.4737Z" fill="#AF1F2D"/>
<path d="M79.8259 48.6831L78.5188 48.8495C76.07 48.8495 74.7794 48.5833 73.3895 49.8309C73.3895 49.9307 73.373 52.1431 73.373 52.2429C73.373 53.4239 73.8032 54.6383 74.5643 55.4533C74.5477 56.651 73.5715 57.5992 72.3637 57.5992H72.3968H71.7018C70.4609 57.5992 69.4515 58.4476 69.4185 59.6452V60.3106L71.0731 59.6452V59.5953V60.2607L72.7277 59.5953V60.2607L74.3823 59.5953H75.6067C75.6067 58.381 76.3347 57.3497 77.3771 56.8506C77.7246 56.6843 78.1051 56.5845 78.5188 56.5679C78.5023 54.9377 79.7763 53.6069 81.3813 53.4738L82.2251 52.2263L82.4071 51.3779C82.4071 50.1968 81.0503 48.6831 79.8259 48.6831Z" fill="#AF1F2D"/>
<path d="M48.1407 72.5047L47.4457 70.625C47.0486 69.5937 46.7508 69.0281 46.1882 68.6954C46.3702 68.6289 46.5522 68.5623 46.7012 68.4792C47.4788 68.0799 47.9421 67.2648 47.9421 66.3167C47.9421 65.3352 47.4954 64.5534 46.7012 64.1209C45.9897 63.7383 45.1127 63.5886 43.607 63.5886H37.8159V64.753H39.1396V72.5712H37.8159V73.5693H43.607V72.5712H42.2834V69.2443H42.4157C43.2596 69.2443 43.5078 69.3774 43.7725 69.7267C44.0538 70.126 44.4509 71.0242 44.7653 71.989L45.2451 73.5527H49.0673V72.4714L48.1407 72.5047ZM44.0207 67.8304C43.756 67.9968 43.3258 68.0799 42.6474 68.0799H42.2834V64.753H42.4323C43.4581 64.753 43.8387 64.8196 44.1531 65.0358C44.484 65.2853 44.6494 65.7345 44.6494 66.3832C44.6164 67.1151 44.4343 67.5809 44.0207 67.8304Z" fill="#EF4136"/>
<path d="M51.6643 70.9075C50.7046 70.9075 49.9766 71.5229 49.9766 72.3214C49.9766 73.1698 50.688 73.752 51.6643 73.752C52.6239 73.752 53.352 73.1365 53.352 72.3214C53.352 71.5229 52.6239 70.9075 51.6643 70.9075Z" fill="#EF4136"/>
<path d="M60.6169 64.752L60.6996 66.5818H63.1319V63.7539H52.377V66.5818H54.7596L54.8423 64.752H56.1826V72.5702H54.5279V73.5683H60.9809V72.5702H59.3263V64.752H60.6169Z" fill="#EF4136"/>
<path d="M69.7502 64.9183V63.7539H63.959V64.9183H65.2827V72.5702H63.959V73.5683H69.7502V72.5702H68.592V64.9183H69.7502Z" fill="#EF4136"/>
<path d="M81.8288 69.7426V68.7445H76.2031V69.7426L77.6923 69.7758V72.3043C77.2621 72.454 76.8815 72.5039 76.4513 72.5039C74.4327 72.5039 73.2579 71.1232 73.2579 68.678C73.2579 66.8981 73.837 64.7855 76.534 64.7855C77.08 64.7855 77.5268 64.852 78.0728 65.035L78.2217 66.7484H80.5051V64.2698L80.3893 64.2033C78.867 63.7043 77.7915 63.5046 76.3686 63.5046C74.6478 63.5046 73.3572 63.8207 72.2982 64.536C70.8918 65.4675 70.0811 66.9979 70.0811 68.7445C70.0811 70.2582 70.6436 71.5225 71.7191 72.4041C72.8112 73.3023 74.2838 73.7515 76.2693 73.7515C77.7253 73.7515 78.6354 73.6018 80.4224 73.0528L80.6705 73.0029V69.7259H81.8288V69.7426Z" fill="#EF4136"/>
<path d="M89.3893 70.574L89.3066 72.5702H86.6261V69.0769H90.1008V67.9125H86.6261V64.752H89.0419L89.1246 66.5818H91.59V63.7539H82.1587V64.9183H83.4824V72.5702H82.1587V73.5683H91.7554V70.574H89.3893Z" fill="#EF4136"/>
<path d="M103.057 72.5032L102.362 70.6235C101.965 69.5922 101.667 69.0266 101.105 68.6939C101.287 68.6274 101.469 68.5609 101.618 68.4777C102.395 68.0785 102.859 67.2634 102.859 66.3152C102.859 65.3338 102.412 64.552 101.618 64.1195C100.906 63.7369 100.029 63.5872 98.5237 63.5872H92.9146V64.7516H94.2382V72.5698H92.9146V73.5678H98.7057V72.5698H97.382V69.2429H97.5144C98.3582 69.2429 98.6064 69.376 98.8711 69.7253C99.1524 70.1245 99.5495 71.0228 99.8639 71.9876L100.344 73.5512H104V72.47L103.057 72.5032ZM99.1193 67.829C98.8546 67.9953 98.4244 68.0785 97.746 68.0785H97.382V64.7516H97.5309C98.5568 64.7516 98.9373 64.8181 99.2517 65.0344C99.5826 65.2839 99.7481 65.733 99.7481 66.3817C99.7315 67.1137 99.533 67.5794 99.1193 67.829Z" fill="#EF4136"/>
<path d="M89.1425 51.6112H88.1331C86.9087 51.6112 85.916 50.6132 85.916 49.3989C85.916 49.0495 85.916 48.8167 85.9325 48.6004H86.7764C87.9015 48.6004 88.9108 47.8186 89.1094 46.7041C89.3741 45.2402 88.249 43.9428 86.826 43.9428H71.5871C71.1238 43.9428 70.7598 43.5602 70.7598 43.111C70.7598 42.6453 71.1403 42.2793 71.5871 42.2793H79.1486C79.4299 42.2793 79.7112 42.1296 79.827 41.8634C80.0752 41.3311 79.6781 40.7822 79.1652 40.7822H71.6698C70.5447 40.7822 69.5354 41.564 69.3368 42.6785C69.0721 44.1424 70.1972 45.4399 71.6202 45.4399L86.8756 45.4565C87.3389 45.4565 87.6864 45.8391 87.6864 46.2716C87.6864 46.7373 87.3058 47.0867 86.8756 47.0867H69.8332C65.9614 47.0867 67.252 42.7284 65.4154 40.6658C65.3492 40.5992 65.2665 40.516 65.2003 40.4495C65.2168 40.4329 65.2499 40.383 65.2665 40.3497C65.4154 40.1335 65.4981 39.9172 65.4981 39.6344C65.4981 39.5512 65.4981 39.4847 65.4816 39.4015L65.4154 39.2851C65.2665 38.8526 64.919 38.5365 64.4557 38.4534L63.0989 39.7176C62.6191 39.7176 62.1393 39.7841 61.6429 39.9006L59.6243 40.5493C59.6408 40.882 59.4919 41.0483 59.2768 41.1814L57.192 41.7803C57.2416 42.0464 57.3574 42.3126 57.5725 42.4456C57.5891 42.4623 57.6222 42.4623 57.6387 42.4956L58.2013 44.6081H58.6811C58.6811 44.5582 58.6811 44.3253 58.6811 44.3253C58.6811 43.793 58.9955 43.3106 59.4919 43.1443C60.5839 42.7617 61.5767 43.8097 61.0969 44.9076C60.8983 45.3567 60.4516 45.6228 59.9717 45.6228H59.9055C59.9055 45.6228 59.9055 45.6228 59.889 45.6228H58.466L58.8631 47.1199H62.0234H62.4371C62.4371 47.1199 62.4371 47.1199 62.4536 47.1199C62.4536 47.1199 62.4702 47.1199 62.5033 47.1199C63.0493 47.1366 63.4795 47.5691 63.4795 48.1014V48.118C63.4795 48.5671 63.6119 49.6484 62.768 50.5134C61.8249 51.4948 60.5343 52.077 59.161 52.077C58.3833 52.077 57.6553 51.894 56.9934 51.5613L56.133 48.3509C56.133 48.3509 55.8021 46.9536 54.6273 47.253L54.9252 48.301C54.2633 47.253 53.072 47.7853 53.072 47.7853C53.072 47.7853 53.4857 48.0348 53.5518 48.2511C53.618 48.4673 53.7835 49.0994 53.7835 49.0994C53.7835 49.0994 53.436 48.7834 52.5591 49.0163C52.5591 49.0163 52.8569 49.2658 52.9562 49.6816C53.0555 50.0975 53.254 51.6778 54.2964 51.4116C54.2964 51.4116 54.2468 52.2101 53.2375 52.2933C53.2375 52.2933 53.949 53.2581 55.2561 53.1583C54.7432 53.5575 54.0317 53.5908 54.0317 53.5908C54.0317 53.5908 58.9128 56.2523 63.314 56.2523C69.221 56.2523 71.3389 53.6739 73.5395 51.6944C74.9294 50.4635 76.3689 49.4321 78.8343 49.4321H79.281C80.522 49.4321 81.5147 50.4468 81.5147 51.6778V52.0437V52.0604V53.441V54.1064C81.4651 55.3207 82.4578 56.3354 83.6657 56.3853H83.6823H83.6988C83.8477 56.3521 83.9966 56.3188 84.1124 56.3022C84.1786 56.2855 84.2448 56.2855 84.2779 56.2523C84.3441 56.2356 84.4434 56.2024 84.4434 56.2024H84.5096C84.5592 56.1857 84.5757 56.1857 84.6088 56.1691C84.9563 56.036 85.2541 55.853 85.5354 55.72C85.5851 55.6867 85.6347 55.6534 85.6843 55.6368C85.8167 55.5703 85.9656 55.537 86.1145 55.537H86.1807C86.6109 55.537 87.0246 55.8198 87.1073 56.2523C87.2066 56.718 86.9584 57.1173 86.5447 57.3002C86.5282 57.3169 86.4951 57.3169 86.4785 57.3169C86.1145 57.45 85.0556 57.5498 84.1786 57.5498C82.0276 57.5498 81.9615 59.4461 81.9615 59.4461V60.0782L83.6161 59.4461V59.6623V60.361L85.2707 59.6623V59.6956V60.3776L86.8756 59.6956H88.3152C88.3813 58.0322 89.7381 56.7014 91.3927 56.7014V53.8403C91.3596 52.5927 90.3669 51.6112 89.1425 51.6112Z" fill="#EF4136"/>
<path d="M255.643 58.2862C255.872 58.0569 255.872 57.6852 255.643 57.456L251.907 53.7204C251.678 53.4911 251.306 53.4911 251.077 53.7204C250.848 53.9496 250.848 54.3213 251.077 54.5505L254.398 57.8711L251.077 61.1916C250.848 61.4209 250.848 61.7925 251.077 62.0218C251.306 62.251 251.678 62.251 251.907 62.0218L255.643 58.2862ZM118 58.4581L255.228 58.4581L255.228 57.2841L118 57.2841L118 58.4581Z" fill="#EB4745"/>
<path d="M265.928 88.8375H267.107V97.78H265.928V90.8889L261.524 97.78H260.338V88.8375H261.524V95.7286L265.928 88.8375ZM271.744 96.9754C272.149 96.9754 272.503 96.8526 272.806 96.6069C273.109 96.3613 273.277 96.0542 273.31 95.6857H274.385C274.364 96.0665 274.233 96.4288 273.992 96.7728C273.75 97.1167 273.427 97.391 273.021 97.5958C272.62 97.8005 272.194 97.9029 271.744 97.9029C270.839 97.9029 270.118 97.6019 269.582 97C269.05 96.394 268.783 95.5669 268.783 94.5187V94.3283C268.783 93.6814 268.902 93.1061 269.14 92.6024C269.377 92.0988 269.717 91.7078 270.159 91.4294C270.606 91.1509 271.132 91.0117 271.738 91.0117C272.483 91.0117 273.101 91.2349 273.593 91.6812C274.088 92.1275 274.352 92.7069 274.385 93.4193H273.31C273.277 92.9894 273.113 92.6372 272.819 92.3629C272.528 92.0845 272.168 91.9453 271.738 91.9453C271.16 91.9453 270.712 92.1541 270.393 92.5717C270.077 92.9853 269.92 93.5851 269.92 94.3713V94.5863C269.92 95.3519 270.077 95.9416 270.393 96.3551C270.708 96.7687 271.158 96.9754 271.744 96.9754ZM281.098 97.78H279.962V92.0742H276.903V97.78H275.761V91.1345H281.098V97.78ZM282.621 94.3959C282.621 93.7448 282.748 93.1593 283.002 92.6393C283.26 92.1193 283.616 91.718 284.071 91.4355C284.529 91.153 285.051 91.0117 285.637 91.0117C286.542 91.0117 287.273 91.3249 287.829 91.9514C288.39 92.5779 288.671 93.4111 288.671 94.4511V94.531C288.671 95.1779 288.546 95.7594 288.296 96.2753C288.05 96.7871 287.696 97.1863 287.234 97.4729C286.775 97.7596 286.247 97.9029 285.649 97.9029C284.748 97.9029 284.017 97.5896 283.456 96.9632C282.9 96.3367 282.621 95.5075 282.621 94.4757V94.3959ZM283.763 94.531C283.763 95.268 283.933 95.8597 284.273 96.306C284.617 96.7523 285.076 96.9754 285.649 96.9754C286.226 96.9754 286.685 96.7502 287.025 96.2998C287.365 95.8453 287.535 95.2107 287.535 94.3959C287.535 93.667 287.361 93.0774 287.013 92.627C286.669 92.1725 286.21 91.9453 285.637 91.9453C285.076 91.9453 284.623 92.1684 284.279 92.6147C283.935 93.061 283.763 93.6998 283.763 94.531ZM295.445 91.1345V97.78H294.303V92.0742H292.043L291.908 94.5617C291.834 95.7041 291.641 96.5209 291.33 97.0123C291.023 97.5036 290.534 97.7596 289.862 97.78H289.408V96.7789L289.733 96.7543C290.102 96.7134 290.366 96.5005 290.526 96.1156C290.685 95.7307 290.788 95.0182 290.833 93.9782L290.956 91.1345H295.445ZM302.699 97.78H301.563V94.9425H298.51V97.78H297.368V91.1345H298.51V94.0151H301.563V91.1345H302.699V97.78ZM308.828 91.1345H309.965V97.78H308.828V92.9341L305.764 97.78H304.627V91.1345H305.764V95.9866L308.828 91.1345ZM316.727 92.0558H314.497V97.78H313.361V92.0558H311.175V91.1345H316.727V92.0558ZM320.099 97.9029C319.198 97.9029 318.465 97.6081 317.9 97.0184C317.335 96.4247 317.052 95.6324 317.052 94.6415V94.4327C317.052 93.7735 317.177 93.1859 317.427 92.67C317.681 92.15 318.033 91.7446 318.483 91.4539C318.938 91.1591 319.429 91.0117 319.957 91.0117C320.821 91.0117 321.493 91.2963 321.972 91.8654C322.451 92.4346 322.691 93.2494 322.691 94.3099V94.7828H318.189C318.205 95.4379 318.395 95.9682 318.76 96.3735C319.128 96.7748 319.595 96.9754 320.16 96.9754C320.561 96.9754 320.901 96.8936 321.18 96.7298C321.458 96.566 321.702 96.349 321.911 96.0787L322.605 96.6192C322.048 97.475 321.212 97.9029 320.099 97.9029ZM319.957 91.9453C319.499 91.9453 319.114 92.1131 318.803 92.4489C318.492 92.7806 318.299 93.2473 318.225 93.8492H321.554V93.7633C321.522 93.1859 321.366 92.7396 321.088 92.4243C320.809 92.105 320.432 91.9453 319.957 91.9453ZM329.459 91.1345V97.78H328.316V92.0742H326.056L325.921 94.5617C325.847 95.7041 325.655 96.5209 325.344 97.0123C325.037 97.5036 324.547 97.7596 323.876 97.78H323.421V96.7789L323.747 96.7543C324.115 96.7134 324.38 96.5005 324.539 96.1156C324.699 95.7307 324.801 95.0182 324.846 93.9782L324.969 91.1345H329.459ZM332.524 93.4255H334.25C335.003 93.4336 335.599 93.6302 336.037 94.0151C336.475 94.4 336.694 94.922 336.694 95.5812C336.694 96.2446 336.469 96.7769 336.018 97.1781C335.568 97.5794 334.962 97.78 334.2 97.78H331.387V91.1345H332.524V93.4255ZM332.524 94.3529V96.8526H334.213C334.639 96.8526 334.968 96.7441 335.202 96.5271C335.435 96.306 335.552 96.005 335.552 95.6242C335.552 95.2557 335.437 94.9548 335.208 94.7214C334.982 94.4839 334.665 94.3611 334.256 94.3529H332.524Z" fill="#222F38"/>
<path d="M169.604 43.2063H166.662V45.6218H164.984V43.2063H163.166V41.8185H164.984V40.6151H163.166V39.236H164.984V32.8327H169.701C171.071 32.8327 172.157 33.1811 172.96 33.8779C173.762 34.5748 174.163 35.5176 174.163 36.7063C174.163 37.9536 173.777 38.9169 173.004 39.5962C172.237 40.2696 171.144 40.6092 169.727 40.6151H166.662V41.8185H169.604V43.2063ZM166.662 39.236H169.701C170.609 39.236 171.3 39.0223 171.774 38.5948C172.248 38.1673 172.485 37.5437 172.485 36.7239C172.485 35.9802 172.239 35.38 171.748 34.9232C171.256 34.4606 170.591 34.2264 169.754 34.2205H166.662V39.236ZM179.451 40.8522H175.164V39.5259H179.451V40.8522ZM189.131 33.7462L183.834 45.6218H182.13L187.409 34.1678H180.487V32.8327H189.131V33.7462ZM190.835 35.2921C190.835 34.525 191.078 33.8926 191.564 33.3948C192.056 32.8971 192.685 32.6482 193.452 32.6482C194.231 32.6482 194.861 32.9 195.341 33.4036C195.827 33.9014 196.07 34.5484 196.07 35.3448V35.9685C196.07 36.7414 195.824 37.3739 195.332 37.8658C194.846 38.3518 194.225 38.5948 193.47 38.5948C192.709 38.5948 192.079 38.3518 191.581 37.8658C191.084 37.3739 190.835 36.721 190.835 35.907V35.2921ZM192.047 35.9685C192.047 36.4252 192.176 36.8029 192.433 37.1016C192.691 37.3944 193.036 37.5408 193.47 37.5408C193.886 37.5408 194.219 37.3973 194.471 37.1104C194.729 36.8234 194.858 36.4311 194.858 35.9333V35.2921C194.858 34.8354 194.732 34.4577 194.48 34.159C194.228 33.8604 193.886 33.7111 193.452 33.7111C193.019 33.7111 192.676 33.8604 192.425 34.159C192.173 34.4577 192.047 34.8471 192.047 35.3273V35.9685ZM197.062 42.486C197.062 41.7189 197.305 41.0894 197.791 40.5975C198.283 40.0998 198.913 39.8509 199.68 39.8509C200.447 39.8509 201.077 40.0968 201.568 40.5887C202.06 41.0806 202.306 41.7335 202.306 42.5475V43.1712C202.306 43.9383 202.06 44.5707 201.568 45.0684C201.082 45.5603 200.459 45.8063 199.697 45.8063C198.936 45.8063 198.307 45.5633 197.809 45.0772C197.311 44.5853 197.062 43.9324 197.062 43.1185V42.486ZM198.275 43.1712C198.275 43.6338 198.403 44.0144 198.661 44.313C198.919 44.6058 199.264 44.7522 199.697 44.7522C200.119 44.7522 200.456 44.6088 200.708 44.3218C200.959 44.029 201.085 43.6338 201.085 43.136V42.486C201.085 42.0234 200.957 41.6457 200.699 41.3529C200.447 41.0601 200.107 40.9137 199.68 40.9137C199.264 40.9137 198.925 41.0601 198.661 41.3529C198.403 41.6399 198.275 42.0293 198.275 42.5212V43.1712ZM193.839 44.6556L192.916 44.0759L199.162 34.08L200.084 34.6597L193.839 44.6556Z" fill="#222F38"/>
<circle opacity="0.1" cx="315.15" cy="83.0205" r="39.9949" fill="url(#paint0_linear)"/>
<defs>
<linearGradient id="paint0_linear" x1="315.15" y1="43.0256" x2="286.778" y2="115.475" gradientUnits="userSpaceOnUse">
<stop stop-color="#ED5958"/>
<stop offset="1" stop-color="#ED5958" stop-opacity="0.77"/>
</linearGradient>
</defs>
</svg>
