<svg width="26" height="15" viewBox="0 0 26 15" fill="none" xmlns="http://www.w3.org/2000/svg">
<path d="M12.5946 14.2862H14.0637C14.0637 14.2862 14.5083 14.2186 14.7306 13.977C14.9432 13.745 14.9238 13.3391 14.9238 13.3391C14.9238 13.3391 14.8949 11.3771 15.8033 11.0872C16.7022 10.7973 17.8619 12.9912 19.0797 13.832C20.0075 14.4699 20.713 14.3926 20.713 14.3926L23.9894 14.3442C23.9894 14.3442 25.7001 14.2379 24.8882 12.8945C24.8302 12.7882 24.4147 11.899 22.4527 10.0724C20.3941 8.16845 20.6647 8.46806 23.1582 5.18204C24.6659 3.17177 25.2652 1.95401 25.0815 1.41278C24.8979 0.910212 23.8058 1.04552 23.8058 1.04552L20.0945 1.07451C20.0945 1.07451 19.8239 1.04552 19.6209 1.16149C19.4276 1.28714 19.302 1.55775 19.302 1.55775C19.302 1.55775 18.7221 3.10411 17.9489 4.42819C16.3059 7.21164 15.6487 7.36627 15.3974 7.18264C14.7789 6.78639 14.9238 5.56863 14.9238 4.70846C14.9238 2.02166 15.3298 0.890881 14.1313 0.600938C13.7351 0.513955 13.4355 0.436637 12.411 0.436637C11.1063 0.417308 9.99482 0.436638 9.35694 0.755575C8.93169 0.94887 8.61275 1.42244 8.80605 1.44177C9.04767 1.47077 9.59856 1.59641 9.8885 1.99266C10.2654 2.5049 10.2558 3.64534 10.2558 3.64534C10.2558 3.64534 10.4684 6.82505 9.7532 7.2213C9.25063 7.49191 8.58376 6.93136 7.12438 4.40886C6.38019 3.11378 5.81964 1.68339 5.81964 1.68339C5.81964 1.68339 5.71332 1.41278 5.52003 1.27747C5.28807 1.11317 4.95947 1.04552 4.95947 1.04552L1.46082 1.06485C1.46082 1.06485 0.929262 1.08418 0.745631 1.30647C0.58133 1.49976 0.726301 1.92501 0.726301 1.92501C0.726301 1.92501 3.46143 8.32308 6.56382 11.5511C9.36661 14.4795 12.5946 14.2862 12.5946 14.2862Z" fill="#D5EBFE"/>
</svg>
