<svg width="92" height="50" viewBox="0 0 92 50" fill="none" xmlns="http://www.w3.org/2000/svg">
<path d="M39.9008 17.7679H91.1282V49.2973H39.9008V17.7679Z" fill="white" stroke="#BED5E5" stroke-width="1.37084"/>
<path d="M47.105 23.9917H64.5282V25.9657H47.105V23.9917Z" fill="#BED5E5"/>
<path d="M48.0913 28.5981H64.5283V30.5722H48.0913V28.5981Z" fill="#E0ECF3"/>
<path d="M46.1187 38.4678H87.8686V40.4418H46.1187V38.4678Z" fill="#BED5E5"/>
<path d="M46.1187 43.0737H68.8017V45.0477H46.1187V43.0737Z" fill="#E0ECF3"/>
<path d="M1.10925 1.31775H50.693V35.4792H1.10925V1.31775Z" fill="white" stroke="#BED5E5" stroke-width="1.37084"/>
<rect x="68.8018" y="21.3594" width="19.0669" height="12.8311" fill="#F0F7FB"/>
<path d="M5.68359 5.89648H46.1185V30.9007H5.68359V5.89648Z" fill="#E0ECF3"/>
<ellipse cx="26.0653" cy="18.0696" rx="7.23227" ry="7.23805" fill="#EB4745"/>
<path d="M25.011 21.989C24.9422 22.0427 24.8488 22.0524 24.7704 22.0141C24.692 21.9757 24.6423 21.8961 24.6423 21.8087L24.6423 18.0156L24.6423 14.2225C24.6423 14.1352 24.692 14.0555 24.7704 14.0171C24.8488 13.9788 24.9422 13.9885 25.011 14.0422L29.8762 17.8353C29.9317 17.8786 29.9642 17.9451 29.9642 18.0156C29.9642 18.0861 29.9317 18.1526 29.8762 18.1959L25.011 21.989Z" fill="white" stroke="#EB4745" stroke-width="0.456948" stroke-linecap="round" stroke-linejoin="round"/>
</svg>
