<svg width="27" height="35" viewBox="0 0 27 35" fill="none" xmlns="http://www.w3.org/2000/svg">
<path d="M25.326 0H1.674C0.75083 0 0 0.751405 0 1.674V32.7941C0 33.7167 0.75083 34.4681 1.674 34.4681H25.326C26.2492 34.4681 27 33.7167 27 32.7941V1.674C27 0.751405 26.2492 0 25.326 0ZM25.8511 32.7941C25.8511 33.0836 25.6155 33.3192 25.326 33.3192H1.674C1.38447 33.3192 1.14894 33.0836 1.14894 32.7941V1.674C1.14894 1.38447 1.38447 1.14894 1.674 1.14894H25.326C25.6155 1.14894 25.8511 1.38447 25.8511 1.674V32.7941Z" fill="#5A9811"/>
<path d="M2.87207 31.5958H9.19122V25.2766H2.87207V31.5958ZM4.02101 26.4255H8.04228V30.4468H4.02101V26.4255Z" fill="#5A9811"/>
<path d="M10.3408 31.5958H16.66V25.2766H10.3408V31.5958ZM11.4898 26.4255H15.511V30.4468H11.4898V26.4255Z" fill="#5A9811"/>
<path d="M17.8086 31.5956H24.1277V17.8083H17.8086V31.5956ZM18.9575 18.9573H22.9788V30.4467H18.9575V18.9573Z" fill="#5A9811"/>
<path d="M2.87207 24.1275H9.19122V17.8083H2.87207V24.1275ZM4.02101 18.9573H8.04228V22.9786H4.02101V18.9573Z" fill="#5A9811"/>
<path d="M10.3408 24.1275H16.66V17.8083H10.3408V24.1275ZM11.4898 18.9573H15.511V22.9786H11.4898V18.9573Z" fill="#5A9811"/>
<path d="M2.87207 16.6595H9.19122V10.3403H2.87207V16.6595ZM4.02101 11.4893H8.04228V15.5105H4.02101V11.4893Z" fill="#5A9811"/>
<path d="M10.3408 16.6595H16.66V10.3403H10.3408V16.6595ZM11.4898 11.4893H15.511V15.5105H11.4898V11.4893Z" fill="#5A9811"/>
<path d="M17.8086 16.6595H24.1277V10.3403H17.8086V16.6595ZM18.9575 11.4893H22.9788V15.5105H18.9575V11.4893Z" fill="#5A9811"/>
<path d="M2.87207 8.61712H24.1274V2.87244H2.87207V8.61712ZM4.02101 4.02137H22.9785V7.46818H4.02101V4.02137Z" fill="#5A9811"/>
</svg>
