<svg width="38" height="35" viewBox="0 0 38 35" fill="none" xmlns="http://www.w3.org/2000/svg">
<path d="M36.4302 12.6796H35.934C35.4506 10.2268 32.971 5.90824 31.8733 4.07909C32.3879 3.7251 32.7262 3.13232 32.7262 2.46186C32.7262 1.38013 31.8461 0.5 30.7644 0.5C29.6826 0.5 28.8026 1.38005 28.8026 2.46186C28.8026 3.13232 29.1409 3.7251 29.6556 4.07909C28.558 5.90824 26.0784 10.2268 25.595 12.6796H25.0988C24.69 12.6796 24.3584 13.0111 24.3584 13.4201C24.3584 16.9524 27.2322 19.8262 30.7645 19.8262C34.2969 19.8262 37.1707 16.9524 37.1707 13.4201C37.1707 13.0111 36.8391 12.6796 36.4302 12.6796ZM30.7645 1.98096C31.0296 1.98096 31.2454 2.19673 31.2454 2.46186C31.2454 2.727 31.0296 2.94269 30.7645 2.94269C30.4993 2.94269 30.2836 2.727 30.2836 2.46186C30.2836 2.19673 30.4992 1.98096 30.7645 1.98096ZM30.7633 5.11001C32.0163 7.22499 33.9513 10.748 34.4273 12.6796H27.104C27.5533 10.871 29.2943 7.57884 30.7633 5.11001ZM30.7645 18.3453C28.3003 18.3453 26.253 16.5263 25.8948 14.1605H35.6342C35.276 16.5263 33.2287 18.3453 30.7645 18.3453Z" fill="#EB4745"/>
<path fill-rule="evenodd" clip-rule="evenodd" d="M35.934 12.6796H36.4302C36.8391 12.6796 37.1707 13.0111 37.1707 13.4201C37.1707 16.9524 34.2969 19.8262 30.7645 19.8262C27.2322 19.8262 24.3584 16.9524 24.3584 13.4201C24.3584 13.0111 24.69 12.6796 25.0988 12.6796H25.595H27.104H34.4273H35.934ZM25.8948 14.1605C26.253 16.5263 28.3003 18.3453 30.7645 18.3453C33.2287 18.3453 35.276 16.5263 35.6342 14.1605H25.8948Z" fill="#EB4745"/>
<path d="M25.1763 30.4088H23.2187V28.5283C23.2187 28.1193 22.8871 27.7879 22.4783 27.7879H20.5978V7.10397C21.0821 6.62525 21.3941 5.9725 21.4302 5.24818L24.5611 4.57445C24.961 4.48842 25.2153 4.09457 25.1293 3.69476C25.0432 3.29495 24.6494 3.04085 24.2496 3.12667L21.1114 3.80206C20.6405 2.90821 19.7026 2.297 18.624 2.297C17.1304 2.297 15.9058 3.46847 15.8196 4.94079L7.99047 6.62554C7.63328 6.13702 7.05633 5.81888 6.4062 5.81888C5.32447 5.81888 4.44434 6.69894 4.44434 7.78075C4.44434 8.4512 4.78265 9.04405 5.29739 9.39798C4.19968 11.2271 1.72018 15.5457 1.23674 17.9985H0.74059C0.33149 17.9985 0 18.33 0 18.739C0 22.2713 2.87379 25.1451 6.40613 25.1451C9.93847 25.1451 12.8123 22.2713 12.8123 18.739C12.8123 18.33 12.4808 17.9985 12.0718 17.9985H11.5757C11.0922 15.5457 8.61265 11.2271 7.51502 9.39798C7.95599 9.09473 8.26715 8.61622 8.34737 8.06367L16.1258 6.38988C16.2626 6.65516 16.44 6.89619 16.6503 7.10412V27.7881H14.7699C14.361 27.7881 14.0295 28.1196 14.0295 28.5285V30.409H12.0719C11.6629 30.409 11.3314 30.7405 11.3314 31.1494V33.9243C11.3314 34.3332 11.6629 34.6647 12.0719 34.6647H25.1763C25.5852 34.6647 25.9167 34.3332 25.9167 33.9243V31.1492C25.9167 30.7403 25.5852 30.4088 25.1763 30.4088ZM6.40613 7.2997C6.67126 7.2997 6.88703 7.51547 6.88703 7.7806C6.88703 8.04573 6.67126 8.26143 6.40613 8.26143C6.14099 8.26143 5.92523 8.04573 5.92523 7.7806C5.92523 7.51547 6.14099 7.2997 6.40613 7.2997ZM6.40613 23.664C3.94195 23.664 1.89464 21.8451 1.53643 19.4792H11.2758C10.9176 21.8451 8.87031 23.664 6.40613 23.664ZM10.0689 17.9984H2.74565C3.19504 16.1898 4.93606 12.8976 6.40504 10.4287C7.65797 12.5437 9.59297 16.0666 10.0689 17.9984ZM18.6241 3.77774C19.3568 3.77774 19.9529 4.37379 19.9529 5.10653C19.9529 5.83928 19.3568 6.43533 18.6241 6.43533C17.8914 6.43533 17.2953 5.83928 17.2953 5.10653C17.2953 4.37379 17.8913 3.77774 18.6241 3.77774ZM19.117 7.87222V27.7879H18.1312V7.87215C18.2914 7.90068 18.4559 7.91636 18.6242 7.91636C18.7924 7.91636 18.9568 7.90061 19.117 7.87222ZM15.5103 29.2687H21.7378V30.4088H15.5103V29.2687ZM24.4358 33.1838H12.8123V31.8897H24.4358V33.1838Z" fill="#EB4745"/>
<path fill-rule="evenodd" clip-rule="evenodd" d="M11.5757 17.9985L10.0689 17.9984H2.74565L1.23674 17.9985H0.74059C0.33149 17.9985 0 18.33 0 18.739C0 22.2713 2.87379 25.1451 6.40613 25.1451C9.93847 25.1451 12.8123 22.2713 12.8123 18.739C12.8123 18.33 12.4808 17.9985 12.0718 17.9985H11.5757ZM1.53643 19.4792C1.89464 21.8451 3.94195 23.664 6.40613 23.664C8.87031 23.664 10.9176 21.8451 11.2758 19.4792H1.53643Z" fill="#EB4745"/>
<path d="M27.9817 3.12706C27.8957 2.72725 27.5017 2.47293 27.1019 2.55896L26.5624 2.67505C26.1626 2.76108 25.9082 3.15493 25.9943 3.55474C26.0691 3.90206 26.3761 4.13953 26.7175 4.13953C26.7691 4.13953 26.8215 4.13416 26.874 4.12283L27.4136 4.00675C27.8132 3.92072 28.0677 3.52686 27.9817 3.12706Z" fill="#EB4745"/>
</svg>
