<svg width="42" height="26" viewBox="0 0 42 26" fill="none" xmlns="http://www.w3.org/2000/svg">
<path d="M6.08731 17.0435H9.19147C9.52187 18.6859 11.1209 19.7494 12.7632 19.419C13.5036 19.2702 14.1616 18.8506 14.609 18.2421C15.6012 19.5917 17.4996 19.8814 18.8492 18.8892C19.4578 18.4419 19.8773 17.7838 20.0264 17.0435H32.322C32.6566 18.6908 34.263 19.7551 35.9103 19.4205C37.1079 19.1773 38.0441 18.2413 38.2873 17.0435H41.3917C41.7278 17.0435 42.0003 16.7711 42.0003 16.435V11.8131C42.0005 11.1966 41.9282 10.5823 41.7855 9.98271L40.456 4.39309C40.2264 3.256 39.2285 2.43766 38.0686 2.43494H19.8548L18.8088 0.336604C18.7053 0.129297 18.4928 -0.00122964 18.2612 8.73478e-06H9.73934C9.50875 8.73478e-06 9.29772 0.130288 9.19469 0.336604L8.14577 2.43494H6.08731C5.75096 2.43494 5.47852 2.70739 5.47852 3.04349V16.4347C5.47852 16.7711 5.75096 17.0435 6.08731 17.0435ZM12.1743 18.2609C11.1657 18.2609 10.3481 17.4433 10.3481 16.4347C10.3481 15.4262 11.1657 14.6089 12.1743 14.6089C13.1828 14.6089 14.0002 15.4262 14.0002 16.4347C14.0002 17.4433 13.1826 18.2609 12.1743 18.2609ZM17.0436 18.2609C16.0351 18.2609 15.2177 17.4433 15.2177 16.4347C15.2177 15.4262 16.0351 14.6089 17.0436 14.6089C18.0522 14.6089 18.8698 15.4262 18.8698 16.4347C18.8698 17.4433 18.0522 18.2609 17.0436 18.2609ZM35.3048 18.2609C34.2962 18.2609 33.4786 17.4433 33.4786 16.4347C33.4786 15.4262 34.2962 14.6089 35.3048 14.6089C36.3133 14.6089 37.1306 15.4262 37.1306 16.4347C37.1306 17.4433 36.3131 18.2609 35.3048 18.2609ZM40.6004 10.2638C40.6071 10.2918 40.6088 10.3198 40.615 10.3478H35.9133V6.08697H39.6082L40.6004 10.2638ZM10.1156 1.21735H17.885L18.4935 2.43494H9.50677L10.1156 1.21735ZM6.69586 3.65228H38.0688C38.6561 3.656 39.1584 4.07507 39.2674 4.65241L39.3221 4.86962H6.69586V3.65228ZM34.696 6.08697V10.3478H31.0437V6.08697H34.696ZM29.8263 6.08697V10.3478H26.1743V6.08697H29.8263ZM24.9567 6.08697V10.3478H21.3047V6.08697H24.9567ZM20.0871 6.08697V10.3478H16.4351V6.08697H20.0871ZM15.2177 6.08697V10.3478H11.5655V6.08697H15.2177ZM6.69586 6.08697H10.3481V10.3478H6.69586V6.08697ZM6.69586 14.0001H7.91345V12.7827H6.69586V11.5654H40.7683C40.7713 11.6481 40.7829 11.7303 40.7829 11.8131V12.7827H39.5656V14.0001H40.7829V15.8262H38.2873C38.2873 15.8153 38.2799 15.8056 38.2774 15.7945C38.24 15.6214 38.1872 15.4517 38.1199 15.2875C38.0961 15.2266 38.0639 15.1755 38.0364 15.1188C37.9841 15.0081 37.9254 14.9004 37.8605 14.7963C37.8217 14.7354 37.7771 14.6802 37.7345 14.6227C37.6676 14.5321 37.5955 14.4449 37.519 14.3617C37.468 14.3074 37.415 14.2569 37.3602 14.2064C37.2788 14.1308 37.1931 14.0602 37.1034 13.9946C37.0425 13.9503 36.9815 13.9077 36.9209 13.8673C36.8223 13.8074 36.7207 13.7526 36.6165 13.7036C36.5518 13.6726 36.4892 13.6429 36.4223 13.6129C36.3031 13.5679 36.181 13.5302 36.057 13.5005C35.996 13.4846 35.9391 13.4638 35.8774 13.4517C35.4957 13.3737 35.1024 13.3737 34.721 13.4517C34.66 13.4638 34.5991 13.4846 34.5414 13.5005C34.4173 13.5302 34.2955 13.5679 34.1761 13.6129C34.1092 13.6397 34.0463 13.6739 33.9819 13.7036C33.8776 13.7526 33.7758 13.8074 33.6775 13.8673C33.6166 13.9077 33.5559 13.9503 33.495 13.9946C33.4053 14.0602 33.3194 14.1308 33.2381 14.2064C33.1831 14.2569 33.1304 14.3074 33.0791 14.3617C33.0028 14.4449 32.9307 14.5321 32.8636 14.6227C32.821 14.6799 32.7767 14.7354 32.7378 14.7963C32.6729 14.9004 32.614 15.0081 32.562 15.1188C32.5345 15.1755 32.501 15.229 32.4785 15.2875C32.4111 15.4517 32.3584 15.6214 32.3207 15.7945C32.3207 15.8056 32.3135 15.8153 32.3111 15.8262H20.0264C20.0264 15.8153 20.019 15.8056 20.0165 15.7945C19.9789 15.6214 19.9261 15.4517 19.859 15.2875C19.8352 15.2266 19.803 15.1755 19.7755 15.1188C19.7233 15.0081 19.6646 14.9004 19.5997 14.7963C19.5608 14.7354 19.5162 14.6802 19.4736 14.6227C19.4065 14.5321 19.3347 14.4449 19.2581 14.3617C19.2071 14.3074 19.1541 14.2569 19.0994 14.2064C19.0179 14.1308 18.9322 14.0602 18.8425 13.9946C18.7816 13.9503 18.7207 13.9077 18.6597 13.8673C18.5614 13.8074 18.4599 13.7526 18.3556 13.7036C18.2909 13.6726 18.2283 13.6429 18.1614 13.6129C18.043 13.5679 17.9222 13.5302 17.7991 13.5005C17.7381 13.4846 17.6812 13.4638 17.6165 13.4517C17.2428 13.3754 16.8574 13.3754 16.4836 13.4517C16.4522 13.4579 16.423 13.4621 16.3893 13.4688C16.2203 13.5059 16.0549 13.5575 15.8947 13.6228L15.8045 13.6625C15.6442 13.7326 15.4902 13.8163 15.3443 13.9126L15.3198 13.9315C15.1806 14.028 15.0493 14.1363 14.928 14.2547C14.9084 14.2735 14.8883 14.2911 14.867 14.3106C14.7746 14.4043 14.6885 14.5041 14.609 14.6089C14.5272 14.5016 14.4385 14.4001 14.3437 14.3045C14.3241 14.2851 14.3041 14.2673 14.2828 14.2485C14.1611 14.1301 14.0301 14.0221 13.8907 13.9253L13.8664 13.9064C13.7203 13.8101 13.5665 13.7264 13.4062 13.6563L13.3161 13.6167C13.1558 13.5513 12.9901 13.5 12.8212 13.4626C12.7902 13.4559 12.7603 13.4517 12.7268 13.4455C12.3531 13.3692 11.968 13.3692 11.5942 13.4455C11.5333 13.4579 11.4723 13.4784 11.4146 13.4943C11.2905 13.524 11.1684 13.5617 11.0493 13.607C10.9824 13.6337 10.9195 13.6679 10.8551 13.6976C10.7518 13.7467 10.6513 13.8014 10.5537 13.8614C10.493 13.9015 10.4321 13.9441 10.3712 13.9884C10.2815 14.0541 10.1958 14.1249 10.1143 14.2004C10.0596 14.251 10.0066 14.3015 9.95556 14.3557C9.87903 14.4387 9.8072 14.5259 9.74008 14.6168C9.69748 14.674 9.6529 14.7295 9.61401 14.7902C9.54912 14.8942 9.49017 15.0019 9.43816 15.1129C9.41067 15.1696 9.37723 15.2231 9.35469 15.2815C9.28732 15.4455 9.23457 15.6152 9.19717 15.7885C9.19717 15.7994 9.18974 15.8091 9.18726 15.8203H6.69586V14.0001Z" fill="#7B9E89" fill-opacity="0.88"/>
<path d="M20.0879 12.7828H32.2618V14.0002H20.0879V12.7828Z" fill="#7B9E89" fill-opacity="0.88"/>
<path d="M6.01092 14.6466L6.84787 14.2281C6.99172 14.0843 7.68483 13.3912 8.10331 13.3912C8.52179 13.3912 8.94027 12.9727 8.94027 12.5542C8.94027 12.1357 10.1957 12.5542 10.6142 12.5542C11.0327 12.5542 13.125 12.1357 13.5435 12.1357H15.6359C16.0544 12.1357 18.1468 12.5542 18.9837 12.5542C19.6533 12.5542 19.5417 12.8332 19.4022 12.9727L20.2392 13.8097L21.0761 14.6466L23.1685 15.4836L24.0055 16.3205L27.3533 16.739L29.8642 17.576L31.1196 18.8314V22.5977H29.8642H29.0272C28.8877 23.0162 28.6087 23.9368 28.6087 24.2716C28.6087 24.6064 28.0508 24.6901 27.7718 24.6901H26.5164C26.0979 24.6901 25.6794 24.2716 25.2609 24.2716C24.9261 24.2716 24.8424 23.7136 24.8424 23.4347L24.0055 22.5977H9.77722H9.35874L8.94027 23.4347L8.52179 24.2716C8.2428 24.4111 7.60114 24.6901 7.26635 24.6901H6.01092C5.67614 24.6901 5.59244 24.1321 5.59244 23.8531L4.75548 22.5977C4.4765 22.4582 3.83483 22.1792 3.50005 22.1792C3.08157 22.1792 3.08157 21.3423 2.66309 21.3423C2.32831 21.3423 2.24461 20.7843 2.24461 20.5053C2.10512 19.9473 2.24461 18.7477 2.24461 18.4129C2.24461 17.9944 2.24461 17.1575 2.66309 16.739C3.08157 16.3205 3.08157 16.3205 3.08157 15.902C3.08157 15.5673 3.91853 15.3441 4.33701 15.4836L6.01092 14.6466Z" fill="white" stroke="white" stroke-width="0.836957"/>
<mask id="mask0" mask-type="alpha" maskUnits="userSpaceOnUse" x="1" y="0" width="31" height="26">
<path d="M27.0119 2.44763H25.5412C25.3217 2.44763 25.1827 2.58669 25.1827 2.74034H25.1826V7.4964C25.1826 7.69395 25.4168 7.79641 25.6582 7.79641C25.8924 7.79641 26.1338 7.69401 26.1338 7.4964V5.79886H26.9534C27.9192 5.79886 28.6729 5.33785 28.6729 4.13787V4.09403C28.6729 2.894 27.9412 2.44763 27.0119 2.44763ZM27.7216 4.21108C27.7216 4.78179 27.429 5.05255 26.9534 5.05255H26.1338V3.28181H26.9534C27.429 3.28181 27.7216 3.55257 27.7216 4.12328V4.21108Z" fill="#F76F34"/>
<path d="M19.0731 4.30698C17.6841 2.91792 15.8373 2.15295 13.8729 2.15295C11.9084 2.15295 10.0617 2.91792 8.67262 4.30698C8.50496 4.47458 8.50496 4.74634 8.67262 4.914C8.84022 5.0816 9.11198 5.0816 9.27958 4.914C10.5065 3.68713 12.1377 3.01143 13.8728 3.01143C15.6079 3.01143 17.2392 3.68713 18.466 4.914C18.5499 4.9978 18.6598 5.0397 18.7696 5.0397C18.8794 5.0397 18.9893 4.9978 19.0731 4.914C19.2407 4.7464 19.2407 4.47458 19.0731 4.30698Z" fill="#F76F34"/>
<path d="M17.302 6.0777C15.411 4.18667 12.3341 4.18667 10.4431 6.0777C10.2755 6.2453 10.2755 6.51712 10.4431 6.68472C10.6107 6.85232 10.8825 6.85232 11.0501 6.68472C12.6064 5.12847 15.1387 5.12847 16.695 6.68472C16.7788 6.76852 16.8886 6.81042 16.9985 6.81042C17.1083 6.81042 17.2182 6.76852 17.302 6.68472C17.4696 6.51712 17.4696 6.2453 17.302 6.0777Z" fill="#F76F34"/>
<path d="M15.5597 7.82021C14.6296 6.89017 13.1163 6.89017 12.1863 7.82021C12.0186 7.98781 12.0186 8.25957 12.1863 8.42723C12.3539 8.59489 12.6257 8.59483 12.7933 8.42723C13.3887 7.83192 14.3573 7.83192 14.9527 8.42723C15.0365 8.51109 15.1464 8.55293 15.2562 8.55293C15.366 8.55293 15.4759 8.51103 15.5597 8.42723C15.7273 8.25957 15.7273 7.98787 15.5597 7.82021Z" fill="#F76F34"/>
<path d="M22.9487 16.1806C22.763 16.0784 22.5797 15.9664 22.4041 15.8478L19.565 13.9298C18.7033 13.3477 17.6982 13.04 16.6584 13.04H11.4473C10.0641 13.04 8.76258 13.5777 7.78252 14.554C7.27878 15.0559 6.70489 15.4758 6.0768 15.8019C5.70535 15.9948 5.47461 16.3744 5.47461 16.7927C5.47461 17.4086 5.97564 17.9096 6.59155 17.9096H8.36818C8.60522 17.9096 8.79742 17.7174 8.79742 17.4804C8.79742 17.2433 8.60522 17.0511 8.36818 17.0511H6.59155C6.44902 17.0511 6.33303 16.9351 6.33303 16.7926C6.33303 16.696 6.3864 16.6084 6.47238 16.5638C7.17803 16.1974 7.82271 15.7258 8.38836 15.1622C9.20635 14.3472 10.2927 13.8985 11.4472 13.8985H12.6139V17.0511H11.1879C10.9509 17.0511 10.7587 17.2433 10.7587 17.4804C10.7587 17.7174 10.9509 17.9096 11.1879 17.9096H22.9574C23.3103 17.9096 23.5973 17.6226 23.5973 17.2697C23.5973 16.8179 23.3488 16.4005 22.9487 16.1806ZM13.4725 17.0512V13.8985H16.6584C17.5264 13.8985 18.3653 14.1553 19.0845 14.6412L21.9236 16.5592C22.1208 16.6923 22.3265 16.818 22.5351 16.9328C22.5892 16.9625 22.6344 17.0034 22.6684 17.0512H13.4725Z" fill="#F76F34"/>
<path d="M14.5354 18.5618H13.2095C12.9725 18.5618 12.7803 18.754 12.7803 18.991C12.7803 19.228 12.9725 19.4202 13.2095 19.4202H14.5354C14.7724 19.4202 14.9646 19.228 14.9646 18.991C14.9646 18.754 14.7724 18.5618 14.5354 18.5618Z" fill="#F76F34"/>
<path d="M31.5863 18.2015L31.4507 17.9765C30.9397 17.1285 30.0898 16.5315 29.1188 16.3383L28.0107 16.1179V10.5011H30.8784C31.4689 10.5011 31.9492 10.0207 31.9492 9.43026V1.0708C31.9492 0.48032 31.4689 0 30.8784 0H22.519C21.9285 0 21.4482 0.480378 21.4482 1.0708V4.24184C21.4482 4.47888 21.6403 4.67108 21.8774 4.67108C22.1145 4.67108 22.3067 4.47888 22.3067 4.24184V1.0708C22.3067 0.953695 22.4019 0.858419 22.5191 0.858419H30.8786C30.9957 0.858419 31.0909 0.953695 31.0909 1.0708V9.43032C31.0909 9.54742 30.9957 9.6427 30.8786 9.6427H22.519C22.4019 9.6427 22.3066 9.54742 22.3066 9.43032V7.03231C22.3066 6.79527 22.1145 6.60307 21.8774 6.60307C21.6403 6.60307 21.4481 6.79527 21.4481 7.03231V9.43032C21.4481 10.0208 21.9285 10.5011 22.5189 10.5011H25.7709V15.6726L25.2013 15.5594C24.4151 15.403 23.6486 14.9285 23.1404 14.5851L20.3013 12.6672C19.2211 11.9375 17.9613 11.5519 16.6578 11.5519H11.4467C9.71278 11.5519 8.08133 12.2258 6.85299 13.4496C6.07572 14.224 5.09731 14.7521 4.02351 14.9771L3.40725 15.1061C2.4911 15.298 1.82617 16.1167 1.82617 17.0527V21.2097C1.82617 21.7056 2.11894 22.1562 2.57213 22.3576L4.28179 23.1174C4.38519 23.6581 4.64565 24.1743 5.06336 24.592C5.61847 25.1472 6.34766 25.4247 7.07691 25.4247C7.80616 25.4247 8.53529 25.1472 9.09046 24.592C9.44749 24.235 9.68901 23.8058 9.81641 23.3511H24.0716C24.199 23.8058 24.4406 24.235 24.7976 24.592C25.3355 25.1299 26.0505 25.4261 26.8111 25.4261C27.5718 25.4261 28.2869 25.1299 28.8248 24.592C29.1818 24.235 29.4233 23.8058 29.5507 23.3511H30.365C31.2426 23.3511 31.9566 22.6371 31.9566 21.7595V19.5332C31.9565 19.0639 31.8284 18.6035 31.5863 18.2015ZM26.6294 10.5011H27.1522V15.9472L26.6294 15.8432V10.5011ZM8.48338 23.9851C8.1077 24.3608 7.60819 24.5677 7.07685 24.5677C6.54551 24.5677 6.046 24.3608 5.67032 23.9851C5.06765 23.3824 4.9336 22.4862 5.2675 21.7526C5.27021 21.7467 5.2728 21.7408 5.27551 21.7349C5.28569 21.7131 5.29645 21.6916 5.30746 21.6702C5.31264 21.66 5.31782 21.65 5.32323 21.64C5.33318 21.6214 5.34353 21.6029 5.35413 21.5845C5.36142 21.5719 5.3689 21.5594 5.37649 21.5469C5.38632 21.5307 5.39626 21.5146 5.40662 21.4986C5.41598 21.4842 5.42563 21.47 5.4354 21.4558C5.44505 21.4417 5.45464 21.4276 5.46464 21.4138C5.47612 21.3979 5.48806 21.3824 5.50007 21.3669C5.50943 21.3547 5.51855 21.3425 5.5282 21.3306C5.54232 21.3131 5.55709 21.296 5.57181 21.2789C5.58022 21.2692 5.58828 21.2593 5.59687 21.2497C5.61877 21.2254 5.64131 21.2016 5.66449 21.1782C5.66649 21.1762 5.66832 21.1741 5.67032 21.1721C5.67473 21.1677 5.67938 21.1635 5.68385 21.1592C5.70351 21.1399 5.72328 21.1208 5.74347 21.1025C5.7487 21.0977 5.75424 21.0933 5.75953 21.0886C5.77966 21.0708 5.7999 21.0531 5.82062 21.0362C5.82256 21.0346 5.82462 21.0331 5.82656 21.0315C6.5541 20.4428 7.60342 20.4435 8.33008 21.0339L8.33267 21.0359C8.35486 21.054 8.37657 21.0729 8.39817 21.0921C8.40205 21.0955 8.40606 21.0988 8.40988 21.1022C8.43483 21.1248 8.45931 21.148 8.48332 21.172C8.50922 21.1979 8.53417 21.2246 8.55841 21.2516C8.56907 21.2635 8.57913 21.2757 8.58943 21.2877C8.60202 21.3024 8.61467 21.3172 8.6268 21.3322C8.64039 21.3491 8.65351 21.3663 8.66646 21.3835C8.67376 21.393 8.68099 21.4027 8.68806 21.4124C8.70377 21.4341 8.71907 21.456 8.73384 21.4781C8.73637 21.4819 8.73884 21.4857 8.74132 21.4895C9.24623 22.2607 9.16031 23.3081 8.48338 23.9851ZM28.2176 23.9851C27.8419 24.3608 27.3424 24.5677 26.811 24.5677C26.2797 24.5677 25.7802 24.3608 25.4046 23.9851C24.7275 23.3081 24.6416 22.2605 25.1466 21.4894C25.149 21.4857 25.1514 21.482 25.1539 21.4783C25.1686 21.4561 25.184 21.4341 25.1998 21.4124C25.2068 21.4027 25.2139 21.3932 25.2212 21.3837C25.2342 21.3664 25.2474 21.3491 25.2611 21.3321C25.2732 21.3173 25.2856 21.3027 25.2982 21.2881C25.3086 21.2759 25.3188 21.2635 25.3295 21.2516C25.3538 21.2246 25.3787 21.198 25.4046 21.1721C25.7803 20.7964 26.2797 20.5895 26.8111 20.5895C27.3424 20.5895 27.8419 20.7964 28.2176 21.1721C28.2435 21.198 28.2685 21.2246 28.2927 21.2516C28.3034 21.2635 28.3135 21.2758 28.3238 21.2879C28.3364 21.3025 28.349 21.3173 28.3611 21.3322C28.3747 21.3492 28.3879 21.3663 28.4009 21.3836C28.4081 21.3932 28.4154 21.4028 28.4224 21.4125C28.4381 21.4342 28.4535 21.456 28.4682 21.4782C28.4707 21.482 28.4732 21.4857 28.4757 21.4895C28.9805 22.2606 28.8946 23.3081 28.2176 23.9851ZM31.0982 21.7595C31.0982 22.1638 30.7692 22.4927 30.3649 22.4927H29.6582C29.6414 21.8701 29.4217 21.2762 29.0262 20.7892C29.0236 20.7859 29.021 20.7825 29.0183 20.7792C28.9938 20.7494 28.9685 20.7201 28.9427 20.691C28.9361 20.6836 28.9299 20.676 28.9232 20.6686C28.8959 20.6385 28.8677 20.609 28.8389 20.5799C28.8341 20.575 28.8296 20.5698 28.8246 20.5649C28.4548 20.1952 28.0013 19.9396 27.5068 19.816C27.282 19.7598 27.0488 19.7309 26.811 19.7309C26.6209 19.7309 26.4336 19.7495 26.2511 19.7856C25.7039 19.8941 25.2009 20.1616 24.7975 20.5649C24.7927 20.5698 24.7882 20.5748 24.7835 20.5797C24.7546 20.609 24.7263 20.6385 24.6989 20.6687C24.6924 20.6758 24.6864 20.6832 24.6801 20.6904C24.6541 20.7197 24.6284 20.7493 24.6038 20.7794C24.6013 20.7824 24.599 20.7855 24.5965 20.7886C24.2008 21.2756 23.9808 21.8699 23.9639 22.4927H9.92399C9.9071 21.8691 9.68665 21.2741 9.2899 20.7867C9.28807 20.7844 9.28631 20.7821 9.28448 20.7798C9.25859 20.7481 9.2317 20.7171 9.20433 20.6864C9.19927 20.6807 9.19456 20.6749 9.18944 20.6693C9.15737 20.6339 9.12442 20.5991 9.09034 20.565C8.95158 20.4262 8.80187 20.3048 8.6441 20.2007C8.1706 19.8884 7.62373 19.7323 7.07685 19.7323C6.34766 19.7323 5.61841 20.0099 5.0633 20.565C5.03158 20.5967 5.00092 20.6293 4.97091 20.6622C4.96202 20.672 4.95349 20.6819 4.94472 20.6918C4.92353 20.7157 4.9027 20.7399 4.8824 20.7644C4.87339 20.7753 4.86439 20.7862 4.85556 20.7973C4.83455 20.8235 4.81408 20.8499 4.79407 20.8767C4.78783 20.8851 4.78141 20.8933 4.77535 20.9017C4.72157 20.9753 4.67166 21.0512 4.62553 21.1291C4.62423 21.1312 4.623 21.1335 4.6217 21.1356C4.59916 21.174 4.57756 21.2128 4.55691 21.2521L4.55508 21.2555C4.40543 21.5402 4.3048 21.8482 4.25867 22.1677L2.92087 21.5731C2.7774 21.5093 2.68471 21.3667 2.68471 21.2097V17.0527C2.68471 16.5206 3.06269 16.0553 3.58344 15.9462L4.1997 15.8172C5.43669 15.5581 6.56375 14.9496 7.45907 14.0577C8.5254 12.9953 9.94164 12.4102 11.4469 12.4102H16.6579C17.7895 12.4102 18.8832 12.7451 19.8209 13.3784L22.66 15.2964C23.2297 15.6813 24.0957 16.2146 25.034 16.4012L28.9515 17.1803C29.6861 17.3264 30.329 17.7781 30.7156 18.4195L30.8511 18.6445C31.0128 18.9127 31.0982 19.22 31.0982 19.5332V21.7595Z" fill="#F76F34"/>
<path d="M7.99808 21.6571C7.75186 21.4109 7.42466 21.2754 7.07657 21.2754C6.72849 21.2754 6.40123 21.411 6.15513 21.6571C5.90902 21.9032 5.77344 22.2304 5.77344 22.5785C5.77344 22.9266 5.90902 23.2539 6.15513 23.5C6.40123 23.7461 6.72849 23.8817 7.07663 23.8817C7.42472 23.8817 7.75198 23.7461 7.99808 23.5C8.50617 22.9919 8.50617 22.1652 7.99808 21.6571ZM7.391 22.893C7.30702 22.9769 7.19533 23.0232 7.07657 23.0232C6.95776 23.0232 6.84612 22.9769 6.76215 22.8929C6.67817 22.8089 6.63186 22.6973 6.63186 22.5785C6.63186 22.4597 6.67811 22.348 6.76215 22.264C6.84612 22.1801 6.95776 22.1338 7.07657 22.1338C7.19533 22.1338 7.30702 22.18 7.391 22.264C7.56437 22.4375 7.56437 22.7196 7.391 22.893Z" fill="#F76F34"/>
<path d="M27.7319 21.6571C27.4857 21.411 27.1585 21.2754 26.8103 21.2754C26.4623 21.2754 26.1351 21.4109 25.8888 21.6571C25.3808 22.1652 25.3808 22.9919 25.8888 23.5C26.135 23.7461 26.4623 23.8817 26.8103 23.8817C27.1585 23.8817 27.4857 23.7461 27.7318 23.5C27.978 23.2539 28.1135 22.9267 28.1135 22.5786C28.1135 22.2305 27.978 21.9032 27.7319 21.6571ZM27.1248 22.893C27.0408 22.977 26.9292 23.0232 26.8103 23.0232C26.6916 23.0232 26.5799 22.977 26.4959 22.893C26.3226 22.7196 26.3226 22.4375 26.4959 22.2642C26.5799 22.1802 26.6916 22.1339 26.8103 22.1339C26.9292 22.1339 27.0408 22.1801 27.1248 22.2642C27.2088 22.3481 27.2551 22.4598 27.2551 22.5786C27.2551 22.6973 27.2089 22.809 27.1248 22.893Z" fill="#F76F34"/>
</mask>
<g mask="url(#mask0)">
<path d="M1.82617 11.3544L24.6245 11.4619C25.2234 12.7241 24.6515 14.2875 25.1474 15.3327C25.4611 15.5477 25.8795 15.7628 26.7161 15.8703L31.6313 17.0315L32.341 21.2894L31.5268 25.5473H1.82617V11.3544Z" fill="#F76F34"/>
</g>
</svg>
