<svg width="13" height="22" viewBox="0 0 13 22" fill="none" xmlns="http://www.w3.org/2000/svg">
<path d="M6.33751 10.9196C9.34325 10.9196 11.7788 8.48412 11.7788 5.47838C11.7788 2.47263 9.34325 0.0371094 6.33751 0.0371094C3.33176 0.0371094 0.89624 2.47263 0.89624 5.47838C0.89624 8.48412 3.33176 10.9196 6.33751 10.9196ZM6.33751 3.21682C7.5746 3.21682 8.5894 4.22196 8.5894 5.46871C8.5894 6.7058 7.58427 7.72061 6.33751 7.72061C5.10042 7.72061 4.08562 6.71547 4.08562 5.46871C4.08562 4.24129 5.09075 3.21682 6.33751 3.21682Z" fill="#D5EBFE"/>
<path d="M8.53115 15.3458C9.6426 15.0848 10.7057 14.6596 11.6819 14.0314C12.4261 13.5578 12.658 12.5817 12.1844 11.8375C11.7109 11.0933 10.7347 10.8613 9.99053 11.3349C7.76764 12.7363 4.8972 12.7363 2.6743 11.3349C1.93012 10.8613 0.953976 11.0933 0.480403 11.8375C0.00682914 12.5817 0.238783 13.5578 0.98297 14.0314C1.95911 14.6403 3.04157 15.0848 4.13368 15.3458L1.08928 18.3805C0.461073 19.0087 0.461073 20.0139 1.08928 20.6324C1.39856 20.9417 1.80448 21.106 2.22006 21.106C2.63564 21.106 3.04156 20.9514 3.35084 20.6324L6.33725 17.646L9.32366 20.6324C9.95187 21.2606 10.957 21.2606 11.5756 20.6324C12.2038 20.0042 12.2038 18.9991 11.5756 18.3805L8.53115 15.3458Z" fill="#D5EBFE"/>
</svg>
