<svg width="78" height="64" viewBox="0 0 78 64" fill="none" xmlns="http://www.w3.org/2000/svg">
<path d="M38.129 32.2581C38.7526 32.2581 39.2581 31.7526 39.2581 31.129C39.2581 30.5055 38.7526 30 38.129 30C37.5055 30 37 30.5055 37 31.129C37 31.7526 37.5055 32.2581 38.129 32.2581Z" fill="#EB4745"/>
<path d="M61.7212 11.7203H10.366C9.74103 11.7203 9.23438 12.227 9.23438 12.8519C9.23438 13.4769 9.74103 13.9836 10.366 13.9836H61.7214C62.3463 13.9836 62.853 13.4769 62.853 12.8519C62.853 12.227 62.3462 11.7203 61.7212 11.7203Z" fill="#EB4745"/>
<path d="M62.8528 22.9726C62.8528 22.3476 62.3462 21.8409 61.7212 21.8409H10.366C9.74103 21.8409 9.23438 22.3476 9.23438 22.9726C9.23438 23.5975 9.74103 24.1042 10.366 24.1042H61.7214C62.3462 24.1042 62.8528 23.5975 62.8528 22.9726Z" fill="#EB4745"/>
<path d="M10.366 31.9615C9.74103 31.9615 9.23438 32.4682 9.23438 33.0932C9.23438 33.7181 9.74103 34.2248 10.366 34.2248H35.598C36.2229 34.2248 36.7296 33.7181 36.7296 33.0932C36.7296 32.4682 36.2229 31.9615 35.598 31.9615H10.366Z" fill="#EB4745"/>
<path d="M59.4721 36.6621C56.8221 36.6058 54.5503 38.544 54.1845 41.1639C54.1512 41.4037 54.1343 41.6486 54.1343 41.8918C54.1343 42.5167 54.6409 43.0234 55.2659 43.0234C55.8908 43.0234 56.3975 42.5167 56.3975 41.8918C56.3975 41.7527 56.4072 41.6128 56.4262 41.4765C56.6335 39.9916 57.9244 38.8933 59.4267 38.925C60.9736 38.9562 62.2481 40.1894 62.3283 41.7324C62.4173 43.4486 61.0534 44.8593 59.365 44.8593C58.7401 44.8593 58.2334 45.366 58.2334 45.9909V50.2771C58.2334 50.9021 58.7401 51.4087 59.365 51.4087C59.99 51.4087 60.4966 50.9021 60.4966 50.2771V46.9973C62.927 46.4546 64.7252 44.2476 64.5885 41.6151C64.447 38.8926 62.1998 36.717 59.4721 36.6621Z" fill="#EB4745"/>
<path d="M77.0798 60.246L73.4747 52.0799C73.3777 51.8602 73.3713 51.6125 73.4572 51.3827C74.1173 49.6116 74.4349 47.7472 74.4011 45.8411C74.2561 37.692 67.5882 31.0893 59.4355 31.024C50.9966 30.9614 44.1528 37.7952 44.2217 46.2402C44.2892 54.5225 51.0694 61.2565 59.4213 61.2053C61.4303 61.191 63.38 60.7875 65.2162 60.006C65.4179 59.9201 65.6459 59.9118 65.8576 59.982L74.6605 62.9065C75.406 63.1544 76.2023 62.9498 76.7357 62.3633C77.2666 61.7794 77.3985 60.9682 77.0798 60.246ZM66.5711 57.8342C66.244 57.7256 65.905 57.6714 65.5669 57.6714C65.1445 57.6714 64.7239 57.7557 64.3298 57.9235C62.7701 58.5872 61.1133 58.93 59.4052 58.9421C52.3436 58.9924 46.5423 53.2907 46.4848 46.2218C46.4264 39.058 52.2118 33.2867 59.3115 33.2867C59.3465 33.2867 59.3821 33.2869 59.4172 33.2871C66.309 33.3421 72.0157 38.9919 72.138 45.8813C72.1668 47.5028 71.8971 49.0878 71.3364 50.5921C71.0434 51.3781 71.0674 52.2312 71.4041 52.9938L74.7391 60.5478L66.5711 57.8342Z" fill="#EB4745"/>
<path d="M40.0592 46.271H24.0678C23.1412 46.271 22.261 46.6223 21.589 47.2602L9.91274 58.3441L11.623 48.8481C11.865 47.5048 10.8319 46.2712 9.46869 46.2712H8.74809C5.1722 46.2712 2.26307 43.362 2.26307 39.7861V8.74839C2.26307 5.17251 5.1722 2.26337 8.74809 2.26337H63.3385C66.9144 2.26337 69.8235 5.17251 69.8235 8.74839V32.4144C69.8235 33.0393 70.3302 33.546 70.9551 33.546C71.5801 33.546 72.0868 33.0393 72.0868 32.4144V8.74824C72.0868 3.92442 68.1623 0 63.3385 0H8.74824C3.92442 0 0 3.92442 0 8.74824V39.786C0 44.6097 3.92442 48.5342 8.74824 48.5342H9.37998L7.51916 58.8669C7.36888 59.7011 7.76932 60.532 8.51513 60.9345C9.25761 61.3351 10.1723 61.2182 10.7901 60.6317L23.1471 48.9016C23.3967 48.6647 23.7236 48.5342 24.0678 48.5342H40.0592C40.6842 48.5342 41.1908 48.0276 41.1908 47.4026C41.1908 46.7777 40.6842 46.271 40.0592 46.271Z" fill="#EB4745"/>
</svg>
