<svg width="19" height="18" viewBox="0 0 19 18" fill="none" xmlns="http://www.w3.org/2000/svg">
<path d="M16.8904 2.0936L16.891 2.0942C18.9038 4.11547 18.9013 7.25694 16.8939 9.26342L16.8938 9.26351L9.50024 16.6571L2.10665 9.26351L2.10656 9.26342C0.0989561 7.25668 0.0969789 4.1152 2.10564 2.09801L2.10651 2.09713C2.57632 1.62337 3.13517 1.2472 3.75092 0.990265C4.36657 0.733365 5.02694 0.600734 5.69404 0.6C6.95351 0.600126 8.167 1.0733 9.09412 1.92579L9.50019 2.29917L9.9063 1.92585C10.8336 1.07344 12.0471 0.600273 13.3066 0.6C13.9729 0.600549 14.6324 0.732766 15.2475 0.989054C15.8625 1.24538 16.4209 1.62075 16.8904 2.0936Z" stroke="#222F38" stroke-width="1.2"/>
</svg>
