<svg width="26" height="24" viewBox="0 0 26 24" fill="none" xmlns="http://www.w3.org/2000/svg">
<path d="M25.1103 8.92744H24.7791C24.4565 7.29072 22.8019 4.40894 22.0694 3.18836C22.4129 2.95214 22.6386 2.55658 22.6386 2.10919C22.6386 1.38735 22.0513 0.800049 21.3295 0.800049C20.6077 0.800049 20.0204 1.3873 20.0204 2.10919C20.0204 2.55658 20.2462 2.95214 20.5896 3.18836C19.8572 4.40894 18.2026 7.29072 17.88 8.92744H17.5489C17.2761 8.92744 17.0548 9.14865 17.0548 9.42154C17.0548 11.7786 18.9725 13.6963 21.3296 13.6963C23.6867 13.6963 25.6044 11.7786 25.6044 9.42154C25.6044 9.14865 25.3831 8.92744 25.1103 8.92744ZM21.3295 1.78829C21.5065 1.78829 21.6504 1.93227 21.6504 2.10919C21.6504 2.28611 21.5065 2.43004 21.3295 2.43004C21.1526 2.43004 21.0087 2.28611 21.0087 2.10919C21.0087 1.93227 21.1526 1.78829 21.3295 1.78829ZM21.3288 3.87628C22.1649 5.28759 23.4561 7.63846 23.7737 8.92744H18.8869C19.1867 7.72057 20.3485 5.52372 21.3288 3.87628ZM21.3295 12.7081C19.6853 12.7081 18.319 11.4943 18.08 9.91563H24.5791C24.34 11.4943 22.9739 12.7081 21.3295 12.7081Z" fill="#D5EBFE"/>
<path fill-rule="evenodd" clip-rule="evenodd" d="M24.7791 8.92744H25.1103C25.3831 8.92744 25.6044 9.14865 25.6044 9.42154C25.6044 11.7786 23.6867 13.6963 21.3296 13.6963C18.9725 13.6963 17.0548 11.7786 17.0548 9.42154C17.0548 9.14865 17.2761 8.92744 17.5489 8.92744H17.88H18.8869H23.7737H24.7791ZM18.08 9.91563C18.319 11.4943 19.6853 12.7081 21.3295 12.7081C22.9739 12.7081 24.34 11.4943 24.5791 9.91563H18.08Z" fill="#D5EBFE"/>
<path d="M17.6003 20.7579H16.294V19.503C16.294 19.2301 16.0728 19.0089 15.7999 19.0089H14.5451V5.20669C14.8683 4.88724 15.0764 4.45167 15.1006 3.96833L17.1898 3.51876C17.4566 3.46135 17.6264 3.19853 17.5689 2.93174C17.5115 2.66495 17.2487 2.4954 16.9819 2.55266L14.8878 3.00335C14.5736 2.40689 13.9477 1.99902 13.228 1.99902C12.2313 1.99902 11.4141 2.78074 11.3566 3.76321L6.13229 4.88744C5.89394 4.56145 5.50894 4.34916 5.07512 4.34916C4.35328 4.34916 3.76598 4.93641 3.76598 5.6583C3.76598 6.10569 3.99173 6.5013 4.33521 6.73747C3.60271 7.95805 1.94816 10.8398 1.62556 12.4766H1.29448C1.02149 12.4766 0.800293 12.6978 0.800293 12.9706C0.800293 15.3278 2.71796 17.2454 5.07507 17.2454C7.43218 17.2454 9.34984 15.3278 9.34984 12.9706C9.34984 12.6978 9.12864 12.4766 8.85575 12.4766H8.52467C8.20207 10.8398 6.54747 7.95805 5.81502 6.73747C6.10928 6.53511 6.31692 6.21581 6.37045 5.84709L11.5609 4.73018C11.6523 4.9072 11.7706 5.06804 11.911 5.20679V19.0091H10.6562C10.3833 19.0091 10.1621 19.2303 10.1621 19.5032V20.758H8.8558C8.5829 20.758 8.3617 20.9792 8.3617 21.2521V23.1037C8.3617 23.3766 8.5829 23.5978 8.8558 23.5978H17.6003C17.8731 23.5978 18.0944 23.3766 18.0944 23.1037V21.252C18.0944 20.9791 17.8731 20.7579 17.6003 20.7579ZM5.07507 5.3373C5.25199 5.3373 5.39597 5.48128 5.39597 5.6582C5.39597 5.83512 5.25199 5.97906 5.07507 5.97906C4.89814 5.97906 4.75417 5.83512 4.75417 5.6582C4.75417 5.48128 4.89814 5.3373 5.07507 5.3373ZM5.07507 16.2571C3.43073 16.2571 2.06457 15.0433 1.82554 13.4646H8.32459C8.08556 15.0433 6.7194 16.2571 5.07507 16.2571ZM7.51924 12.4765H2.63245C2.93233 11.2696 4.0941 9.07273 5.07434 7.4253C5.91041 8.83656 7.20163 11.1874 7.51924 12.4765ZM13.228 2.98712C13.717 2.98712 14.1147 3.38485 14.1147 3.87381C14.1147 4.36277 13.717 4.76051 13.228 4.76051C12.7391 4.76051 12.3413 4.36277 12.3413 3.87381C12.3413 3.38485 12.7391 2.98712 13.228 2.98712ZM13.5569 5.71934V19.009H12.8991V5.71929C13.006 5.73833 13.1158 5.74879 13.2281 5.74879C13.3404 5.74879 13.4501 5.73828 13.5569 5.71934ZM11.1502 19.9971H15.3058V20.7579H11.1502V19.9971ZM17.1062 22.6096H9.34989V21.746H17.1062V22.6096Z" fill="#D5EBFE"/>
<path fill-rule="evenodd" clip-rule="evenodd" d="M8.52467 12.4766L7.51924 12.4765H2.63245L1.62556 12.4766H1.29448C1.02149 12.4766 0.800293 12.6978 0.800293 12.9706C0.800293 15.3278 2.71796 17.2454 5.07507 17.2454C7.43218 17.2454 9.34984 15.3278 9.34984 12.9706C9.34984 12.6978 9.12864 12.4766 8.85575 12.4766H8.52467ZM1.82554 13.4646C2.06457 15.0433 3.43073 16.2571 5.07507 16.2571C6.7194 16.2571 8.08556 15.0433 8.32459 13.4646H1.82554Z" fill="#D5EBFE"/>
<path d="M19.4719 2.55309C19.4145 2.2863 19.1516 2.1166 18.8848 2.174L18.5248 2.25147C18.258 2.30888 18.0883 2.57169 18.1457 2.83848C18.1956 3.07024 18.4005 3.22871 18.6283 3.22871C18.6627 3.22871 18.6977 3.22512 18.7327 3.21757L19.0928 3.1401C19.3595 3.08269 19.5293 2.81988 19.4719 2.55309Z" fill="#D5EBFE"/>
</svg>
