<svg width="18" height="22" viewBox="0 0 18 22" fill="none" xmlns="http://www.w3.org/2000/svg">
<path d="M16.8945 0.447998H6.14453C5.77366 0.447998 5.47266 0.748998 5.47266 1.11987V7.83862H6.81641V1.79175H16.2227V20.6042H6.81641V14.5574H5.47266V21.2761C5.47266 21.647 5.77366 21.948 6.14453 21.948H16.8945C17.2654 21.948 17.5664 21.647 17.5664 21.2761V1.11987C17.5664 0.748998 17.2654 0.447998 16.8945 0.447998Z" fill="#606E77"/>
<path d="M13.3383 10.723L9.30705 6.69177L8.35701 7.6418L11.2414 10.5262H0.0976562V11.8699H11.2414L8.35701 14.7543L9.30705 15.7043L13.3383 11.6731C13.601 11.4104 13.601 10.9857 13.3383 10.723Z" fill="#606E77"/>
</svg>
