<svg width="42" height="37" viewBox="0 0 42 37" fill="none" xmlns="http://www.w3.org/2000/svg">
<path d="M41.0022 17.3144C40.9941 15.6793 39.6635 14.3491 38.0206 14.3491L27.9386 14.3732L27.9064 3.46536C27.8985 1.83053 26.568 0.5 24.9332 0.5L15.6201 0.524106L10.467 0.540072C10.2426 0.540072 10.0262 0.628357 9.86595 0.788646C9.70566 0.948936 9.61738 1.16526 9.61738 1.38973C9.61738 1.85432 10.0021 2.23125 10.467 2.23125L15.6201 2.21497L24.925 2.19118C25.6304 2.19118 26.1992 2.76002 26.1992 3.46536L26.2315 15.3428C26.2315 15.6874 26.1031 16.008 25.8627 16.2485C25.6222 16.4889 25.3017 16.6251 24.957 16.6251L12.9835 16.6651C12.7349 16.6651 12.5026 16.7694 12.3423 16.9616L9.61738 20.1195L6.53994 16.9378C6.37965 16.7694 6.15518 16.6733 5.93072 16.6811L3.01357 16.6893C2.67671 16.6893 2.35613 16.5609 2.1157 16.3205C1.87526 16.08 1.73908 15.7594 1.73908 15.4151L1.69901 3.53736C1.69901 3.19299 1.82736 2.87241 2.0678 2.63198C2.30823 2.39154 2.62881 2.25505 2.9735 2.25505H4.08738C4.55229 2.25505 4.93704 1.8706 4.92891 1.4057C4.92891 1.18123 4.84062 0.964902 4.6725 0.804613C4.51221 0.644323 4.29589 0.556039 4.07142 0.564178H2.96536C2.17205 0.564178 1.42664 0.876618 0.865626 1.43763C0.304613 2.00678 0 2.75219 0 3.5455L0.0319327 15.4229C0.0319327 16.2165 0.344685 16.9616 0.913526 17.5226C1.47454 18.0758 2.21995 18.3883 3.00543 18.3883H3.0214L5.5782 18.3804L9.04822 21.9707C9.20851 22.131 9.43298 22.2274 9.65745 22.2274H9.68155C9.92199 22.2192 10.1465 22.115 10.2986 21.9306L13.376 18.3563L16.4939 18.3482L16.5017 29.256C16.5017 30.0493 16.8144 30.7947 17.3755 31.3558C17.9365 31.9168 18.6819 32.2214 19.4752 32.2214L27.7141 32.1973L30.8157 35.7556C30.9678 35.9321 31.2004 36.0442 31.4327 36.0442H31.4487C31.6813 36.0442 31.9058 35.9481 32.0579 35.7797L35.5123 32.1732L38.0688 32.1653C38.8621 32.1653 39.6075 31.8526 40.1685 31.2916C40.7295 30.7306 41.0341 29.9773 41.0341 29.1837L41.0022 17.3144ZM39.3351 29.2C39.3351 29.5444 39.2068 29.8649 38.9663 30.1054C38.7259 30.3458 38.4053 30.4823 38.0606 30.4823L35.1435 30.4901C34.9112 30.4901 34.6946 30.5862 34.5343 30.7547L31.4728 33.9523L28.7238 30.8029C28.5635 30.6185 28.3312 30.5142 28.0908 30.5142H28.0826L19.4752 30.5302C19.1386 30.5302 18.8181 30.4022 18.5776 30.1617C18.3372 29.9213 18.201 29.6007 18.201 29.2638L18.1929 18.3482L24.9811 18.3322C26.3517 18.3322 27.5297 17.4024 27.8585 16.08L38.0368 16.0481C38.7419 16.0481 39.311 16.6172 39.311 17.3223L39.3351 29.2Z" fill="#D75BE1"/>
<path d="M7.06906 2.23911L7.08503 2.24725C7.16517 2.27136 7.24532 2.27919 7.32546 2.27919C7.69425 2.27919 8.0308 2.03093 8.13505 1.6781C8.27123 1.22948 8.01483 0.756435 7.5659 0.620252L7.54993 0.612112C7.10131 0.475928 6.62826 0.732329 6.49208 1.18127C6.37186 1.6302 6.62044 2.10293 7.06906 2.23911Z" fill="#D75BE1"/>
<path d="M11.5164 14.4453C11.9093 14.4453 12.1416 14.3091 12.2218 14.0364L12.6544 12.4416H15.3393L15.7722 14.0364C15.8442 14.3091 16.0847 14.4453 16.4776 14.4453C16.79 14.4453 17.0865 14.357 17.3751 14.1889C17.6716 14.0204 17.8159 13.8041 17.8159 13.5718C17.8159 13.5396 17.8078 13.4917 17.7918 13.4193L15.3555 5.47719C15.2832 5.25272 15.1151 5.07646 14.8584 4.94811C14.6101 4.82789 14.3137 4.77185 13.9849 4.77185C13.6562 4.77185 13.3679 4.83603 13.1115 4.94811C12.8548 5.06832 12.6867 5.24458 12.6143 5.47719L10.194 13.4275C10.1781 13.4995 10.1699 13.5477 10.1699 13.5796C10.1699 13.8201 10.3224 14.0286 10.6107 14.1967C10.8994 14.357 11.204 14.4453 11.5164 14.4453ZM13.0874 10.7987L13.9849 7.49677L14.8825 10.7987H13.0874Z" fill="#D75BE1"/>
<path d="M31.3284 22.2993C31.3447 22.1472 31.2965 22.0107 31.2004 21.8905C31.0401 21.7142 30.7436 21.6021 30.4068 21.6021C30.0624 21.6021 29.8457 21.7464 29.7496 22.0507C29.2368 22.0507 28.756 22.099 28.2992 22.1951C28.307 21.9387 28.3152 21.7624 28.3311 21.562C28.3872 21.562 28.4432 21.5539 28.5074 21.5539C28.6436 21.5461 28.8039 21.5379 29.0124 21.522C29.2127 21.506 29.4532 21.4819 29.7177 21.4497C30.006 21.4177 30.3106 21.3858 30.5912 21.3695C31.6412 21.2656 31.9777 21.0489 31.9777 20.4641C31.9777 20.007 31.7054 19.6946 31.3206 19.6946C31.2483 19.6946 31.1681 19.6946 31 19.7265L30.8557 19.7506C29.9021 19.895 29.4613 19.967 28.4673 20.0312C28.4996 19.7748 28.5234 19.5262 28.5234 19.374C28.5234 18.9573 28.251 18.7247 27.7542 18.7247C27.1208 18.7329 26.9367 19.0052 26.8403 20.0953H26.4878C26.3676 20.0953 26.1913 20.0953 26.0229 20.0872C25.8548 20.0872 25.6864 20.0794 25.5743 20.0794C25.0371 20.0794 24.8207 20.2876 24.8207 20.8326C24.8207 21.6422 25.2856 21.6422 26.2233 21.6422C26.3917 21.6422 26.5761 21.6422 26.7602 21.6262V21.6582C26.7442 22.0188 26.7282 22.3554 26.7201 22.732C25.1814 23.5096 24.332 24.6877 24.332 26.058C24.332 27.2683 24.9651 27.9577 26.0789 27.9577C26.4959 27.9577 26.8403 27.8775 27.2893 27.685C27.4254 27.9013 27.5779 27.9815 27.8503 27.9815C28.4031 27.9815 28.812 27.6609 28.812 27.2442C28.812 27.108 28.7801 26.9477 28.7078 26.7392C29.4613 26.0502 30.2465 24.9281 30.8238 23.726C31.3284 23.9504 31.6089 24.399 31.6089 24.9923C31.6089 26.1222 30.6635 26.4988 30.0383 26.7474L30.0223 26.7555C29.6855 26.8835 29.5092 27.1399 29.5092 27.4928C29.5092 27.9655 29.894 28.3584 30.3589 28.3584C30.9759 28.3584 33.26 27.5087 33.26 24.9682C33.276 23.6618 32.5628 22.6919 31.3284 22.2993ZM29.2769 23.4774C29.1006 23.9104 28.7319 24.5114 28.3631 24.9682C28.3311 24.6476 28.2829 24.0224 28.2829 23.6699C28.6116 23.5735 28.9322 23.5096 29.2769 23.4774ZM26.7602 24.4473C26.7924 25.0242 26.8485 25.6012 26.9367 26.1544C26.6321 26.3225 26.3836 26.4027 26.1992 26.4027C25.991 26.4027 25.8548 26.2183 25.8548 25.9459C25.8548 25.2888 26.2633 24.8881 26.7602 24.4473Z" fill="#D75BE1"/>
</svg>
