<svg width="31" height="36" viewBox="0 0 31 36" fill="none" xmlns="http://www.w3.org/2000/svg">
<path d="M11.9848 3.9334C12.3802 4.06381 12.7543 4.23068 13.097 4.42943C13.1874 4.48182 13.2861 4.50676 13.3834 4.50676C13.5807 4.50676 13.7726 4.40456 13.8788 4.22168C14.0373 3.94843 13.9442 3.59845 13.671 3.4399C13.2601 3.20157 12.8133 3.00214 12.3431 2.84702C12.0432 2.74818 11.7197 2.911 11.6207 3.21103C11.5218 3.51105 11.6849 3.83449 11.9848 3.9334Z" fill="#FF8AC9"/>
<path d="M15.863 10.0565C15.863 10.9098 15.764 11.7819 15.5686 12.6486C15.4991 12.9568 15.6926 13.2629 16.0008 13.3324C16.0431 13.3419 16.0854 13.3465 16.127 13.3465C16.3886 13.3465 16.6246 13.166 16.6845 12.9002C16.8985 11.9511 17.0071 10.9943 17.0071 10.0565C17.0071 8.05916 16.5196 6.39537 15.5582 5.11162C15.3689 4.8588 15.0103 4.80725 14.7575 4.99661C14.5047 5.18597 14.4531 5.54449 14.6425 5.79731C15.4523 6.87881 15.863 8.31182 15.863 10.0565Z" fill="#FF8AC9"/>
<path d="M7.60334 18.7906C6.18185 17.821 4.91082 15.9617 4.20324 13.8171C4.10425 13.5171 3.78066 13.3542 3.48079 13.4532C3.18077 13.5522 3.01787 13.8756 3.11686 14.1756C3.91222 16.5863 5.31259 18.6128 6.95875 19.7357C7.05736 19.803 7.16955 19.8353 7.28051 19.8353C7.46324 19.8353 7.64284 19.7479 7.75358 19.5856C7.9315 19.3244 7.86431 18.9686 7.60334 18.7906Z" fill="#FF8AC9"/>
<path d="M27.5762 9.34132C25.8348 7.64527 23.3949 6.71126 20.7059 6.71126C20.1386 6.71126 19.5778 6.75336 19.0326 6.83527C18.5786 5.18712 17.7573 3.76296 16.5941 2.63005C14.8527 0.934009 12.4128 0 9.72378 0C7.03478 0 4.59485 0.934009 2.85343 2.63005C0.986708 4.44812 0 7.01617 0 10.0565C0 13.1529 1.01477 16.3759 2.78418 18.8991C4.29254 21.0503 6.15362 22.4344 8.14107 22.9165C8.00753 23.1672 7.93149 23.453 7.93149 23.7563V24.9765C7.93149 25.2924 8.18759 25.5485 8.50348 25.5485H9.11779C9.07119 25.9003 8.98173 26.1388 8.88312 26.4018C8.72304 26.8284 8.54161 27.3121 8.54161 28.2289C8.54161 29.1463 8.72297 29.6301 8.88304 30.0571C9.02726 30.4416 9.15172 30.7737 9.15172 31.4837C9.15172 32.1937 9.02726 32.5258 8.88304 32.9103C8.72297 33.3372 8.54161 33.821 8.54161 34.7384C8.54161 35.0543 8.7977 35.3104 9.11359 35.3104C9.42948 35.3104 9.68557 35.0543 9.68557 34.7384C9.68557 34.0285 9.81004 33.6964 9.95418 33.3119C10.1143 32.885 10.2957 32.4011 10.2957 31.4838C10.2957 30.5664 10.1143 30.0825 9.95418 29.6556C9.81004 29.2711 9.68557 28.939 9.68557 28.2291C9.68557 27.5198 9.81004 27.1879 9.95418 26.8038C10.0771 26.4761 10.2123 26.114 10.2686 25.5486H10.9439C11.2598 25.5486 11.5159 25.2925 11.5159 24.9767V23.7564C11.5159 23.4531 11.4399 23.1674 11.3063 22.9167C11.5948 22.8467 11.8805 22.7578 12.163 22.6502C13.6659 26.3458 16.2717 28.9181 19.1253 29.6237C18.9904 29.8754 18.9136 30.1627 18.9136 30.4678V31.688C18.9136 32.0039 19.1697 32.26 19.4855 32.26H20.0999C20.0533 32.6118 19.9638 32.8503 19.8652 33.1133C19.7051 33.5399 19.5237 34.0236 19.5237 34.9404C19.5237 35.2563 19.7798 35.5124 20.0957 35.5124C20.4115 35.5124 20.6676 35.2563 20.6676 34.9404C20.6676 34.2311 20.7921 33.8993 20.9362 33.5151C21.0592 33.1874 21.1944 32.8253 21.2507 32.26H21.926C22.2419 32.26 22.498 32.0039 22.498 31.688V30.4678C22.498 30.1645 22.422 29.8787 22.2884 29.628C24.2759 29.1459 26.1369 27.7617 27.6453 25.6106C29.4146 23.0874 30.4294 19.8644 30.4294 16.768C30.4296 13.7274 29.4428 11.1594 27.5762 9.34132ZM3.72086 18.2424C2.08324 15.907 1.14404 12.9234 1.14404 10.0565C1.14404 7.3319 2.01117 5.04725 3.65161 3.44959C5.1782 1.96274 7.33465 1.14397 9.72378 1.14397C12.1129 1.14397 14.2694 1.96274 15.796 3.44951C17.4364 5.04725 18.3035 7.3319 18.3035 10.0564C18.3035 12.9234 17.3643 15.907 15.7267 18.2423C14.0437 20.6424 11.9119 21.9641 9.72378 21.9641C7.53568 21.9641 5.40379 20.6424 3.72086 18.2424ZM10.372 23.7563V24.4046H9.07554V23.7563C9.07554 23.3989 9.36633 23.1081 9.72378 23.1081C10.0812 23.1081 10.372 23.3989 10.372 23.7563ZM21.3541 30.4676V31.1159H20.0576V30.4676C20.0576 30.1102 20.3484 29.8194 20.7059 29.8194C21.0633 29.8194 21.3541 30.1102 21.3541 30.4676ZM26.7088 24.9536C25.0258 27.3537 22.894 28.6754 20.7059 28.6754C19.1636 28.6754 17.6203 28.0033 16.2426 26.7318C15.0046 25.5891 13.9326 23.976 13.2009 22.1631C13.5734 21.954 13.9381 21.7113 14.2931 21.4359C15.1112 23.6036 16.4208 25.4104 17.9404 26.4468C18.039 26.5141 18.1511 26.5463 18.2621 26.5463C18.4448 26.5463 18.6244 26.4589 18.7352 26.2966C18.9132 26.0357 18.8459 25.6798 18.5849 25.5018C17.1845 24.5466 15.9305 22.7276 15.217 20.6231C15.7267 20.1194 16.2111 19.5442 16.6634 18.8991C18.4327 16.3759 19.4475 13.1529 19.4475 10.0565C19.4475 9.32736 19.3901 8.6258 19.2781 7.95475C19.7432 7.88863 20.2216 7.85523 20.7059 7.85523C23.095 7.85523 25.2515 8.674 26.778 10.1608C28.4185 11.7585 29.2856 14.0432 29.2856 16.7677C29.2856 19.6347 28.3464 22.6183 26.7088 24.9536Z" fill="#2B8EE0"/>
<path d="M27.5762 9.34132C25.8348 7.64527 23.3949 6.71126 20.7059 6.71126C20.1386 6.71126 19.5778 6.75336 19.0326 6.83527C18.5786 5.18712 17.7573 3.76296 16.5941 2.63005C14.8527 0.934009 12.4128 0 9.72378 0C7.03478 0 4.59485 0.934009 2.85343 2.63005C0.986708 4.44812 0 7.01617 0 10.0565C0 13.1529 1.01477 16.3759 2.78418 18.8991C4.29254 21.0503 6.15362 22.4344 8.14107 22.9165C8.00753 23.1672 7.93149 23.453 7.93149 23.7563V24.9765C7.93149 25.2924 8.18759 25.5485 8.50348 25.5485H9.11779C9.07119 25.9003 8.98173 26.1388 8.88312 26.4018C8.72304 26.8284 8.54161 27.3121 8.54161 28.2289C8.54161 29.1463 8.72297 29.6301 8.88304 30.0571C9.02726 30.4416 9.15172 30.7737 9.15172 31.4837C9.15172 32.1937 9.02726 32.5258 8.88304 32.9103C8.72297 33.3372 8.54161 33.821 8.54161 34.7384C8.54161 35.0543 8.7977 35.3104 9.11359 35.3104C9.42948 35.3104 9.68557 35.0543 9.68557 34.7384C9.68557 34.0285 9.81004 33.6964 9.95418 33.3119C10.1143 32.885 10.2957 32.4011 10.2957 31.4838C10.2957 30.5664 10.1143 30.0825 9.95418 29.6556C9.81004 29.2711 9.68557 28.939 9.68557 28.2291C9.68557 27.5198 9.81004 27.1879 9.95418 26.8038C10.0771 26.4761 10.2123 26.114 10.2686 25.5486H10.9439C11.2598 25.5486 11.5159 25.2925 11.5159 24.9767V23.7564C11.5159 23.4531 11.4399 23.1674 11.3063 22.9167C11.5948 22.8467 11.8805 22.7578 12.163 22.6502C13.6659 26.3458 16.2717 28.9181 19.1253 29.6237C18.9904 29.8754 18.9136 30.1627 18.9136 30.4678V31.688C18.9136 32.0039 19.1697 32.26 19.4855 32.26H20.0999C20.0533 32.6118 19.9638 32.8503 19.8652 33.1133C19.7051 33.5399 19.5237 34.0236 19.5237 34.9404C19.5237 35.2563 19.7798 35.5124 20.0957 35.5124C20.4115 35.5124 20.6676 35.2563 20.6676 34.9404C20.6676 34.2311 20.7921 33.8993 20.9362 33.5151C21.0592 33.1874 21.1944 32.8253 21.2507 32.26H21.926C22.2419 32.26 22.498 32.0039 22.498 31.688V30.4678C22.498 30.1645 22.422 29.8787 22.2884 29.628C24.2759 29.1459 26.1369 27.7617 27.6453 25.6106C29.4146 23.0874 30.4294 19.8644 30.4294 16.768C30.4296 13.7274 29.4428 11.1594 27.5762 9.34132ZM3.72086 18.2424C2.08324 15.907 1.14404 12.9234 1.14404 10.0565C1.14404 7.3319 2.01117 5.04725 3.65161 3.44959C5.1782 1.96274 7.33465 1.14397 9.72378 1.14397C12.1129 1.14397 14.2694 1.96274 15.796 3.44951C17.4364 5.04725 18.3035 7.3319 18.3035 10.0564C18.3035 12.9234 17.3643 15.907 15.7267 18.2423C14.0437 20.6424 11.9119 21.9641 9.72378 21.9641C7.53568 21.9641 5.40379 20.6424 3.72086 18.2424ZM10.372 23.7563V24.4046H9.07554V23.7563C9.07554 23.3989 9.36633 23.1081 9.72378 23.1081C10.0812 23.1081 10.372 23.3989 10.372 23.7563ZM21.3541 30.4676V31.1159H20.0576V30.4676C20.0576 30.1102 20.3484 29.8194 20.7059 29.8194C21.0633 29.8194 21.3541 30.1102 21.3541 30.4676ZM26.7088 24.9536C25.0258 27.3537 22.894 28.6754 20.7059 28.6754C19.1636 28.6754 17.6203 28.0033 16.2426 26.7318C15.0046 25.5891 13.9326 23.976 13.2009 22.1631C13.5734 21.954 13.9381 21.7113 14.2931 21.4359C15.1112 23.6036 16.4208 25.4104 17.9404 26.4468C18.039 26.5141 18.1511 26.5463 18.2621 26.5463C18.4448 26.5463 18.6244 26.4589 18.7352 26.2966C18.9132 26.0357 18.8459 25.6798 18.5849 25.5018C17.1845 24.5466 15.9305 22.7276 15.217 20.6231C15.7267 20.1194 16.2111 19.5442 16.6634 18.8991C18.4327 16.3759 19.4475 13.1529 19.4475 10.0565C19.4475 9.32736 19.3901 8.6258 19.2781 7.95475C19.7432 7.88863 20.2216 7.85523 20.7059 7.85523C23.095 7.85523 25.2515 8.674 26.778 10.1608C28.4185 11.7585 29.2856 14.0432 29.2856 16.7677C29.2856 19.6347 28.3464 22.6183 26.7088 24.9536Z" fill="#FF8AC9"/>
<mask id="mask0" mask-type="alpha" maskUnits="userSpaceOnUse" x="0" y="0" width="31" height="36">
<path d="M27.5762 9.34132C25.8348 7.64527 23.3949 6.71126 20.7059 6.71126C20.1386 6.71126 19.5778 6.75336 19.0326 6.83527C18.5786 5.18712 17.7573 3.76296 16.5941 2.63005C14.8527 0.934009 12.4128 0 9.72378 0C7.03478 0 4.59485 0.934009 2.85343 2.63005C0.986708 4.44812 0 7.01617 0 10.0565C0 13.1529 1.01477 16.3759 2.78418 18.8991C4.29254 21.0503 6.15362 22.4344 8.14107 22.9165C8.00753 23.1672 7.93149 23.453 7.93149 23.7563V24.9765C7.93149 25.2924 8.18759 25.5485 8.50348 25.5485H9.11779C9.07119 25.9003 8.98173 26.1388 8.88312 26.4018C8.72304 26.8284 8.54161 27.3121 8.54161 28.2289C8.54161 29.1463 8.72297 29.6301 8.88304 30.0571C9.02726 30.4416 9.15172 30.7737 9.15172 31.4837C9.15172 32.1937 9.02726 32.5258 8.88304 32.9103C8.72297 33.3372 8.54161 33.821 8.54161 34.7384C8.54161 35.0543 8.7977 35.3104 9.11359 35.3104C9.42948 35.3104 9.68557 35.0543 9.68557 34.7384C9.68557 34.0285 9.81004 33.6964 9.95418 33.3119C10.1143 32.885 10.2957 32.4011 10.2957 31.4838C10.2957 30.5664 10.1143 30.0825 9.95418 29.6556C9.81004 29.2711 9.68557 28.939 9.68557 28.2291C9.68557 27.5198 9.81004 27.1879 9.95418 26.8038C10.0771 26.4761 10.2123 26.114 10.2686 25.5486H10.9439C11.2598 25.5486 11.5159 25.2925 11.5159 24.9767V23.7564C11.5159 23.4531 11.4399 23.1674 11.3063 22.9167C11.5948 22.8467 11.8805 22.7578 12.163 22.6502C13.6659 26.3458 16.2717 28.9181 19.1253 29.6237C18.9904 29.8754 18.9136 30.1627 18.9136 30.4678V31.688C18.9136 32.0039 19.1697 32.26 19.4855 32.26H20.0999C20.0533 32.6118 19.9638 32.8503 19.8652 33.1133C19.7051 33.5399 19.5237 34.0236 19.5237 34.9404C19.5237 35.2563 19.7798 35.5124 20.0957 35.5124C20.4115 35.5124 20.6676 35.2563 20.6676 34.9404C20.6676 34.2311 20.7921 33.8993 20.9362 33.5151C21.0592 33.1874 21.1944 32.8253 21.2507 32.26H21.926C22.2419 32.26 22.498 32.0039 22.498 31.688V30.4678C22.498 30.1645 22.422 29.8787 22.2884 29.628C24.2759 29.1459 26.1369 27.7617 27.6453 25.6106C29.4146 23.0874 30.4294 19.8644 30.4294 16.768C30.4296 13.7274 29.4428 11.1594 27.5762 9.34132ZM3.72086 18.2424C2.08324 15.907 1.14404 12.9234 1.14404 10.0565C1.14404 7.3319 2.01117 5.04725 3.65161 3.44959C5.1782 1.96274 7.33465 1.14397 9.72378 1.14397C12.1129 1.14397 14.2694 1.96274 15.796 3.44951C17.4364 5.04725 18.3035 7.3319 18.3035 10.0564C18.3035 12.9234 17.3643 15.907 15.7267 18.2423C14.0437 20.6424 11.9119 21.9641 9.72378 21.9641C7.53568 21.9641 5.40379 20.6424 3.72086 18.2424ZM10.372 23.7563V24.4046H9.07554V23.7563C9.07554 23.3989 9.36633 23.1081 9.72378 23.1081C10.0812 23.1081 10.372 23.3989 10.372 23.7563ZM21.3541 30.4676V31.1159H20.0576V30.4676C20.0576 30.1102 20.3484 29.8194 20.7059 29.8194C21.0633 29.8194 21.3541 30.1102 21.3541 30.4676ZM26.7088 24.9536C25.0258 27.3537 22.894 28.6754 20.7059 28.6754C19.1636 28.6754 17.6203 28.0033 16.2426 26.7318C15.0046 25.5891 13.9326 23.976 13.2009 22.1631C13.5734 21.954 13.9381 21.7113 14.2931 21.4359C15.1112 23.6036 16.4208 25.4104 17.9404 26.4468C18.039 26.5141 18.1511 26.5463 18.2621 26.5463C18.4448 26.5463 18.6244 26.4589 18.7352 26.2966C18.9132 26.0357 18.8459 25.6798 18.5849 25.5018C17.1845 24.5466 15.9305 22.7276 15.217 20.6231C15.7267 20.1194 16.2111 19.5442 16.6634 18.8991C18.4327 16.3759 19.4475 13.1529 19.4475 10.0565C19.4475 9.32736 19.3901 8.6258 19.2781 7.95475C19.7432 7.88863 20.2216 7.85523 20.7059 7.85523C23.095 7.85523 25.2515 8.674 26.778 10.1608C28.4185 11.7585 29.2856 14.0432 29.2856 16.7677C29.2856 19.6347 28.3464 22.6183 26.7088 24.9536Z" fill="#FFAE21"/>
</mask>
<g mask="url(#mask0)">
<path d="M19.1561 6.74935L30.4051 6.48242V32.6411L19.7662 35.7679L12.0254 22.8793L15.7623 20.4007L18.851 16.0917L19.7662 10.7914L19.1561 6.74935Z" fill="#9055A2"/>
</g>
<path d="M26.5406 11.8228C26.3513 11.57 25.9927 11.5184 25.7399 11.7078C25.4871 11.8972 25.4355 12.2557 25.6249 12.5085C26.4348 13.59 26.8455 15.023 26.8455 16.7677C26.8455 17.6209 26.7465 18.4931 26.5511 19.3598C26.4816 19.668 26.6751 19.9741 26.9833 20.0436C27.0256 20.0531 27.0679 20.0577 27.1095 20.0577C27.3711 20.0577 27.6071 19.8772 27.667 19.6114C27.881 18.6623 27.9896 17.7055 27.9896 16.7677C27.9895 14.7703 27.502 13.1066 26.5406 11.8228Z" fill="#9055A2"/>
<path d="M24.6525 10.1511C24.2415 9.91275 23.7948 9.71332 23.3245 9.5582C23.0246 9.45936 22.7012 9.62218 22.6022 9.92221C22.5033 10.2222 22.6662 10.5456 22.9662 10.6446C23.3615 10.775 23.7357 10.9419 24.0783 11.1406C24.1687 11.193 24.2674 11.2179 24.3648 11.2179C24.562 11.2179 24.754 11.1157 24.8601 10.9329C25.0188 10.6596 24.9257 10.3096 24.6525 10.1511Z" fill="#9055A2"/>
</svg>
