<svg width="39" height="29" viewBox="0 0 39 29" fill="none" xmlns="http://www.w3.org/2000/svg">
<path d="M9.10019 20.65C6.94933 20.65 5.2002 22.3992 5.2002 24.55C5.2002 26.7009 6.94933 28.45 9.10019 28.45C11.2511 28.45 13.0002 26.7009 13.0002 24.55C13.0002 22.3992 11.251 20.65 9.10019 20.65ZM9.10019 27.15C7.66626 27.15 6.50022 25.9839 6.50022 24.55C6.50022 23.1161 7.66634 21.9501 9.10019 21.9501C10.5341 21.9501 11.7002 23.1162 11.7002 24.55C11.7002 25.9839 10.5341 27.15 9.10019 27.15Z" fill="#FFAE21"/>
<path d="M31.1998 20.65C29.0489 20.65 27.2998 22.3992 27.2998 24.55C27.2998 26.7009 29.0489 28.45 31.1998 28.45C33.3507 28.45 35.0998 26.7009 35.0998 24.55C35.0998 22.3992 33.3507 20.65 31.1998 20.65ZM31.1998 27.15C29.7659 27.15 28.5998 25.9839 28.5998 24.55C28.5998 23.1161 29.7659 21.9501 31.1998 21.9501C32.6337 21.9501 33.7998 23.1162 33.7998 24.55C33.7998 25.9839 32.6337 27.15 31.1998 27.15Z" fill="#FFAE21"/>
<path d="M38.8968 17.0483L33.0468 7.94827C32.9272 7.76233 32.7212 7.6499 32.5001 7.6499H25.3502C24.9907 7.6499 24.7002 7.94111 24.7002 8.29988V24.5499C24.7002 24.9093 24.9907 25.1998 25.3502 25.1998H27.9501V23.8998H26.0001V8.94993H32.1452L37.7001 17.591V23.9H34.4501V25.1999H38.3501C38.7096 25.1999 39.0001 24.9094 39.0001 24.5499V17.3999C39.0002 17.2757 38.9644 17.1529 38.8968 17.0483Z" fill="#FFAE21"/>
<path d="M28.5998 16.1V11.55H33.7998V10.25H27.9498C27.5903 10.25 27.2998 10.5412 27.2998 10.9V16.75C27.2998 17.1094 27.5903 17.4 27.9498 17.4H37.6998V16.0999H28.5998V16.1Z" fill="#FFAE21"/>
<path d="M25.35 3.09998H0.649975C0.291205 3.09998 0 3.39118 0 3.74995V24.55C0 24.9094 0.291205 25.1999 0.649975 25.1999H5.85V23.8999H1.30003V4.39992H24.7V23.8999H12.35V25.1999H25.35C25.7095 25.1999 26 24.9094 26 24.55V3.74995C26 3.39118 25.7095 3.09998 25.35 3.09998Z" fill="#FFAE21"/>
<path d="M4.55039 21.3H0.650391V22.6001H4.55039V21.3Z" fill="#FFAE21"/>
<path d="M24.7004 21.3H13.6504V22.6001H24.7004V21.3Z" fill="#FFAE21"/>
<path d="M38.35 21.3H35.75V22.6001H38.35V21.3Z" fill="#FFAE21"/>
<path d="M25.3496 5.69995H2.59961V6.99998H25.3496V5.69995Z" fill="#FFAE21"/>
<path d="M9.75022 23.8999H8.4502V25.1999H9.75022V23.8999Z" fill="#FFAE21"/>
<path d="M31.8498 23.8999H30.5498V25.1999H31.8498V23.8999Z" fill="#FFAE21"/>
<path d="M11.6996 0.5H2.59961V1.80003H11.6996V0.5Z" fill="#FFAE21"/>
<path d="M1.30003 0.5H0V1.80003H1.30003V0.5Z" fill="#FFAE21"/>
</svg>
