<svg width="184" height="185" viewBox="0 0 184 185" fill="none" xmlns="http://www.w3.org/2000/svg">
<g filter="url(#filter0_d)">
<path fill-rule="evenodd" clip-rule="evenodd" d="M91.9794 140.144C118.306 140.144 139.648 118.802 139.648 92.4758C139.648 66.1492 118.306 44.8072 91.9794 44.8072C65.6528 44.8072 44.3108 66.1492 44.3108 92.4758C44.3108 118.802 65.6528 140.144 91.9794 140.144ZM107.17 92.9996L86.2173 74.1417V111.858L107.17 92.9996Z" fill="#EB4745"/>
<path d="M91.9794 145.383C121.199 145.383 144.886 121.695 144.886 92.4758C144.886 63.2561 121.199 39.5689 91.9794 39.5689C62.7597 39.5689 39.0725 63.2561 39.0725 92.4758C39.0725 121.695 62.7597 145.383 91.9794 145.383ZM91.4556 100.096V85.9036L99.34 92.9996L91.4556 100.096Z" stroke="#EB4745" stroke-opacity="0.17" stroke-width="10.4766"/>
</g>
<path d="M107.17 92.9998L86.217 111.858V74.1417L107.17 92.9998Z" fill="white"/>
<defs>
<filter id="filter0_d" x="0.308807" y="0.805389" width="183.341" height="183.341" filterUnits="userSpaceOnUse" color-interpolation-filters="sRGB">
<feFlood flood-opacity="0" result="BackgroundImageFix"/>
<feColorMatrix in="SourceAlpha" type="matrix" values="0 0 0 0 0 0 0 0 0 0 0 0 0 0 0 0 0 0 127 0"/>
<feOffset/>
<feGaussianBlur stdDeviation="16.7626"/>
<feColorMatrix type="matrix" values="0 0 0 0 1 0 0 0 0 0.0120482 0 0 0 0 0 0 0 0 0.54 0"/>
<feBlend mode="normal" in2="BackgroundImageFix" result="effect1_dropShadow"/>
<feBlend mode="normal" in="SourceGraphic" in2="effect1_dropShadow" result="shape"/>
</filter>
</defs>
</svg>
