<svg width="19" height="19" viewBox="0 0 19 19" fill="none" xmlns="http://www.w3.org/2000/svg">
<path opacity="0.8" fill-rule="evenodd" clip-rule="evenodd" d="M9.48028 18.3115C14.3321 18.3115 18.2652 14.3783 18.2652 9.52654C18.2652 4.67474 14.3321 0.741577 9.48028 0.741577C4.62847 0.741577 0.695312 4.67474 0.695312 9.52654C0.695312 14.3783 4.62847 18.3115 9.48028 18.3115ZM8.41168 12.471L12.6806 9.99409C12.763 9.94705 12.8315 9.87905 12.8791 9.79698C12.9268 9.71492 12.9519 9.62171 12.9519 9.52682C12.9519 9.43192 12.9268 9.33872 12.8791 9.25665C12.8315 9.17459 12.763 9.10659 12.6806 9.05954L8.41168 6.5826C8.04873 6.37194 7.58447 6.62688 7.58447 7.04955V12.0034C7.58447 12.4268 8.0494 12.681 8.41168 12.471Z" fill="white"/>
</svg>
