<svg width="17" height="21" viewBox="0 0 17 21" fill="none" xmlns="http://www.w3.org/2000/svg">
<path d="M14.7943 2.1585C13.4052 0.825012 11.4829 0.0905762 9.38142 0.0905762C6.17136 0.0905762 4.19703 1.40643 3.10605 2.51023C1.76149 3.87054 0.990479 5.67675 0.990479 7.46585C0.990479 9.71218 1.93007 11.4363 3.50353 12.0777C3.60917 12.121 3.71545 12.1428 3.81966 12.1428C4.1516 12.1428 4.41461 11.9256 4.50573 11.5772C4.55884 11.3773 4.68192 10.8843 4.73542 10.6702C4.84997 10.2474 4.75742 10.0441 4.50762 9.74973C4.05253 9.21127 3.84061 8.57453 3.84061 7.74585C3.84061 5.28441 5.67345 2.66839 9.07044 2.66839C11.7658 2.66839 13.4401 4.20033 13.4401 6.66632C13.4401 8.22248 13.105 9.66362 12.4961 10.7245C12.0731 11.4616 11.3291 12.3402 10.1871 12.3402C9.69319 12.3402 9.24956 12.1374 8.96962 11.7837C8.70517 11.4493 8.61802 11.0174 8.72437 10.5673C8.84452 10.0587 9.00835 9.52818 9.1669 9.0153C9.45607 8.07857 9.72944 7.19385 9.72944 6.48799C9.72944 5.28063 8.98719 4.4694 7.88261 4.4694C6.47883 4.4694 5.37906 5.89518 5.37906 7.71532C5.37906 8.60798 5.6163 9.27564 5.72369 9.53202C5.54685 10.2813 4.49584 14.7359 4.29648 15.5759C4.18121 16.0662 3.4868 19.9392 4.63616 20.248C5.92754 20.595 7.08185 16.823 7.19933 16.3967C7.29455 16.0501 7.62773 14.7393 7.83191 13.9336C8.45531 14.534 9.45907 14.94 10.4358 14.94C12.277 14.94 13.9328 14.1114 15.0984 12.6071C16.2287 11.148 16.8513 9.11429 16.8513 6.88092C16.8513 5.13491 16.1015 3.41363 14.7943 2.1585Z" fill="#D5EBFE"/>
</svg>
