<svg width="93" height="93" viewBox="0 0 93 93" fill="none" xmlns="http://www.w3.org/2000/svg">
<circle cx="46.3682" cy="46.5" r="44.881" stroke="#EB4745" stroke-width="2.7619"/>
<path d="M50.9058 62.8121H40.7409V71.1565H34.9453V62.8121H28.6643V58.0179H34.9453V53.8609H28.6643V49.097H34.9453V26.9768H51.2396C55.9731 26.9768 59.7256 28.1804 62.4969 30.5877C65.2683 32.9949 66.6539 36.2517 66.6539 40.3582C66.6539 44.6669 65.3188 47.9945 62.6486 50.3411C59.9987 52.6674 56.226 53.8407 51.3306 53.8609H40.7409V58.0179H50.9058V62.8121ZM40.7409 49.097H51.2396C54.3751 49.097 56.7621 48.3586 58.4006 46.8819C60.0391 45.4052 60.8584 43.2509 60.8584 40.4189C60.8584 37.8498 60.0088 35.7763 58.3096 34.1985C56.6103 32.6004 54.3144 31.7913 51.4217 31.771H40.7409V49.097Z" fill="#EB4745"/>
<path d="M14.2764 13.9634L78.4907 78.1777" stroke="#EB4745" stroke-width="2.7619"/>
</svg>
