<svg width="16" height="16" viewBox="0 0 16 16" fill="none" xmlns="http://www.w3.org/2000/svg">
<path d="M12 6.39286C12 7.87234 11.401 9.21089 10.4309 10.1809C9.46089 11.151 8.12234 11.75 6.64286 11.75C3.68419 11.75 1.28571 9.35153 1.28571 6.39286C1.28571 3.43419 3.68419 1.03571 6.64286 1.03571C9.60153 1.03571 12 3.43419 12 6.39286Z" stroke="#606E77" stroke-width="1.07143" stroke-linecap="round" stroke-linejoin="round"/>
<path d="M14.8353 15.3429C15.0445 15.5521 15.3837 15.5521 15.5929 15.3429C15.8021 15.1337 15.8021 14.7945 15.5929 14.5853L14.8353 15.3429ZM10.0139 10.5215L14.8353 15.3429L15.5929 14.5853L10.7715 9.76389L10.0139 10.5215Z" fill="#606E77"/>
</svg>
