<svg width="67" height="67" viewBox="0 0 67 67" fill="none" xmlns="http://www.w3.org/2000/svg">
<path d="M57.3031 45.1573L50.7827 54.5254L46.1813 50.7491C45.685 50.3401 44.9497 50.4135 44.5419 50.9098C44.1329 51.4074 44.2052 52.1426 44.7039 52.5493L50.2805 57.1273C50.4891 57.2998 50.7512 57.3918 51.0192 57.3918C51.0716 57.3918 51.1252 57.3883 51.1788 57.3802C51.5004 57.3359 51.7894 57.1588 51.9758 56.8919L59.2163 46.4879C59.5834 45.9601 59.454 45.2342 58.925 44.866C58.3961 44.4966 57.6713 44.6283 57.3031 45.1573Z" fill="#EB4745"/>
<path d="M62.9204 41.9005V14.4846C62.9204 6.66153 56.5561 0.297241 48.733 0.297241H14.1874C6.36428 0.297241 0 6.66153 0 14.4846V49.0303C0 56.8534 6.36428 63.2177 14.1874 63.2177H41.6032C44.2284 65.3989 47.597 66.7133 51.2685 66.7133C59.6206 66.7133 66.416 59.9178 66.416 51.5657C66.416 47.8942 65.1017 44.5256 62.9204 41.9005ZM14.1874 60.8873C7.64949 60.8873 2.33039 55.5693 2.33039 49.0303V14.4846C2.33039 7.94557 7.64949 2.62763 14.1874 2.62763H48.733C55.2709 2.62763 60.59 7.94557 60.59 14.4846V39.6435C60.5027 39.5747 60.4094 39.5165 60.3209 39.4501C60.0762 39.266 59.8315 39.083 59.5752 38.9141C59.5484 38.8966 59.5192 38.8814 59.4924 38.864C58.8935 38.4748 58.2632 38.1322 57.6095 37.8293C57.5209 37.7885 57.4347 37.7419 57.3461 37.7023C57.0898 37.5893 56.8276 37.4925 56.5643 37.3935C56.3977 37.3306 56.2311 37.2665 56.0621 37.2094C55.8209 37.129 55.5774 37.0579 55.3315 36.9892C55.123 36.9309 54.9132 36.8762 54.7023 36.8272C54.4798 36.7759 54.2584 36.7258 54.0323 36.6839C53.7643 36.6338 53.494 36.5953 53.2225 36.5604C53.0408 36.5371 52.8602 36.5079 52.6761 36.4905C52.21 36.445 51.7404 36.4182 51.2685 36.4182C44.1212 36.4182 38.1286 41.4006 36.544 48.0702H31.4602C30.817 48.0702 30.295 48.591 30.295 49.2354C30.295 49.8797 30.817 50.4005 31.4602 50.4005H36.1804C36.1501 50.7862 36.121 51.1731 36.121 51.5657C36.121 52.0376 36.149 52.5072 36.1921 52.9733C36.2095 53.1586 36.2375 53.3392 36.262 53.5221C36.2969 53.7913 36.3354 54.0604 36.3855 54.3261C36.4274 54.5533 36.4775 54.7782 36.53 55.0019C36.5789 55.2105 36.6325 55.4167 36.6896 55.6229C36.7595 55.8723 36.8306 56.1193 36.9133 56.3628C36.9681 56.5271 37.031 56.6879 37.0916 56.8499C37.1918 57.1179 37.2908 57.3847 37.405 57.6457C37.4388 57.7226 37.4796 57.7972 37.5146 57.8741C37.8257 58.5499 38.1799 59.2024 38.5842 59.82C38.5947 59.8363 38.604 59.8538 38.6145 59.8689C38.7846 60.1264 38.9687 60.3723 39.1528 60.6193C39.2192 60.7078 39.2775 60.7999 39.3451 60.8873H14.1874ZM51.2685 64.3829C47.9815 64.3829 44.9881 63.128 42.7171 61.0854C42.4352 60.8325 42.166 60.5692 41.9097 60.2942C41.8526 60.2336 41.7978 60.1719 41.7419 60.1101C41.4984 59.8386 41.2676 59.559 41.0486 59.27C40.9985 59.2036 40.9472 59.1372 40.8983 59.0696C40.6827 58.7713 40.48 58.4649 40.2912 58.1502C40.2528 58.0873 40.2131 58.0256 40.1759 57.9603C39.9848 57.6306 39.8112 57.2927 39.6504 56.9478C39.6247 56.893 39.5968 56.8406 39.5723 56.7846C39.4103 56.4246 39.2682 56.0564 39.1412 55.6824C39.126 55.6358 39.1062 55.5915 39.0911 55.546C38.9664 55.1662 38.8627 54.7782 38.773 54.3867C38.7625 54.3412 38.7473 54.297 38.738 54.2503C38.6541 53.8647 38.5947 53.4732 38.5481 53.0793C38.5411 53.0246 38.5294 52.971 38.5236 52.915C38.4758 52.4699 38.4514 52.0202 38.4514 51.5657C38.4514 44.4988 44.2016 38.7486 51.2685 38.7486C51.7229 38.7486 52.1739 38.7731 52.6213 38.822C52.6737 38.8279 52.7238 38.8395 52.7763 38.8465C53.1724 38.8943 53.5674 38.9549 53.9554 39.0387C53.9997 39.0481 54.0417 39.0632 54.0859 39.0725C54.4798 39.1623 54.8689 39.266 55.2511 39.3918C55.2942 39.4058 55.3362 39.4233 55.3793 39.4384C55.7568 39.5666 56.1285 39.7111 56.4921 39.8742C56.5433 39.8975 56.5934 39.9243 56.6447 39.9476C56.9931 40.1096 57.3345 40.2855 57.6677 40.4778C57.7283 40.5127 57.7878 40.5512 57.8472 40.5873C58.1653 40.7795 58.4752 40.9823 58.777 41.2013C58.8411 41.248 58.904 41.2957 58.9669 41.3435C59.2606 41.5649 59.5449 41.7991 59.8199 42.0461C59.8781 42.0985 59.9364 42.1498 59.9923 42.2034C60.2708 42.4633 60.5388 42.7371 60.7963 43.0237C62.8342 45.2923 64.0856 48.2822 64.0856 51.5657C64.0856 58.6326 58.3354 64.3829 51.2685 64.3829Z" fill="#EB4745"/>
<path d="M31.4601 16.6098H52.4336C53.0768 16.6098 53.5988 16.089 53.5988 15.4446C53.5988 14.8003 53.0768 14.2794 52.4336 14.2794H31.4601C30.8169 14.2794 30.2949 14.8003 30.2949 15.4446C30.2949 16.089 30.8169 16.6098 31.4601 16.6098Z" fill="#EB4745"/>
<path d="M31.4601 32.9227H52.4336C53.0768 32.9227 53.5988 32.4018 53.5988 31.7575C53.5988 31.1131 53.0768 30.5923 52.4336 30.5923H31.4601C30.8169 30.5923 30.2949 31.1131 30.2949 31.7575C30.2949 32.4018 30.8169 32.9227 31.4601 32.9227Z" fill="#EB4745"/>
<path d="M22.3354 8.86139L15.0552 17.3533L10.603 14.0127C10.088 13.627 9.35744 13.7307 8.97176 14.2457C8.58492 14.7596 8.68979 15.4902 9.2048 15.8759L14.5309 19.8713C14.7406 20.0286 14.9853 20.1043 15.23 20.1043C15.5598 20.1043 15.886 19.9657 16.1156 19.6965L24.1053 10.375C24.5236 9.88676 24.4677 9.15152 23.9795 8.73322C23.4924 8.31608 22.7548 8.37201 22.3354 8.86139Z" fill="#EB4745"/>
<path d="M22.3354 25.174L15.0552 33.6659L10.603 30.3253C10.088 29.9397 9.35744 30.0434 8.97176 30.5584C8.58492 31.0722 8.68979 31.8028 9.2048 32.1885L14.5309 36.1839C14.7406 36.3412 14.9853 36.417 15.23 36.417C15.5598 36.417 15.886 36.2783 16.1156 36.0091L24.1053 26.6876C24.5236 26.1994 24.4677 25.4641 23.9795 25.0458C23.4924 24.6287 22.7548 24.6846 22.3354 25.174Z" fill="#EB4745"/>
<path d="M22.3354 42.652L15.0552 51.1427L10.603 47.8033C10.088 47.4188 9.35744 47.5213 8.97176 48.0363C8.58492 48.5502 8.68979 49.2807 9.2048 49.6664L14.5309 53.6619C14.7406 53.8192 14.9853 53.8949 15.23 53.8949C15.5598 53.8949 15.886 53.7563 16.1156 53.4871L24.1053 44.1667C24.5236 43.6785 24.4677 42.9433 23.9795 42.525C23.4924 42.1067 22.7548 42.1626 22.3354 42.652Z" fill="#EB4745"/>
</svg>
