<svg width="19" height="25" viewBox="0 0 19 25" fill="none" xmlns="http://www.w3.org/2000/svg">
<path d="M9.5 11.4204L15.88 16.7904L15 16.9704L14.36 17.0904C13.73 17.2204 13.37 17.9204 13.65 18.4904L13.92 19.0704L15.28 22.0104L13.86 22.6704L12.5 19.7404L12.24 19.1604C12.1781 19.0227 12.0853 18.9011 11.9689 18.805C11.8525 18.7088 11.7156 18.6408 11.5687 18.606C11.4218 18.5712 11.2688 18.5706 11.1217 18.6043C10.9745 18.638 10.8371 18.7051 10.72 18.8004L10.21 19.2004L9.5 19.7704V11.4204ZM8.76 9.11041C8.55844 9.11041 8.36513 9.19048 8.2226 9.33301C8.08007 9.47554 8 9.66885 8 9.87041V21.3204C8 21.7404 8.34 22.0804 8.76 22.0804C8.95 22.0804 9.11 22.0204 9.24 21.9204L11.15 20.3704L12.81 23.9904C12.94 24.2604 13.21 24.4204 13.5 24.4204C13.61 24.4204 13.72 24.4204 13.83 24.3404L16.59 23.0604C16.97 22.8804 17.15 22.4204 16.95 22.0504L15.28 18.4204L17.69 17.9704C17.8556 17.9274 18.005 17.837 18.12 17.7104C18.39 17.3904 18.35 16.9204 18 16.6304L9.26 9.28041L9.25 9.29041C9.11322 9.17413 8.93952 9.11033 8.76 9.11041ZM13 10.4204V8.42041H18V10.4204H13ZM11.83 5.18041L14.66 2.35041L16.07 3.76041L13.24 6.59041L11.83 5.18041ZM8 0.42041H10V5.42041H8V0.42041ZM1.93 15.0804L4.76 12.2504L6.17 13.6604L3.34 16.4904L1.93 15.0804ZM1.93 3.76041L3.34 2.35041L6.17 5.18041L4.76 6.59041L1.93 3.76041ZM5 10.4204H0V8.42041H5V10.4204Z" fill="#606E77"/>
</svg>
