<svg width="22" height="18" viewBox="0 0 22 18" fill="none" xmlns="http://www.w3.org/2000/svg">
<path d="M21.4972 2.5527C20.7241 2.90063 19.8832 3.13258 18.9941 3.2389C19.8929 2.70733 20.5791 1.8375 20.9174 0.832366C20.0765 1.33493 19.139 1.7022 18.1436 1.88583C17.351 1.03533 16.2106 0.513428 14.9542 0.513428C12.5477 0.513428 10.5954 2.46571 10.5954 4.87224C10.5954 5.21051 10.6437 5.53911 10.7017 5.85805C7.07738 5.67442 3.85901 3.93476 1.71343 1.30594C1.3365 1.94382 1.12388 2.688 1.12388 3.49984C1.12388 5.00755 1.89706 6.35096 3.05684 7.12414C2.34164 7.10481 1.67477 6.91151 1.07556 6.57325C1.07556 6.59257 1.07556 6.60224 1.07556 6.63123C1.07556 8.74782 2.58326 10.4971 4.58387 10.9127C4.21661 11.019 3.83968 11.0674 3.44343 11.0674C3.17281 11.0674 2.89253 11.0384 2.62192 10.99C3.17281 12.7297 4.78683 13.9765 6.69079 14.0248C5.19275 15.1942 3.32745 15.8998 1.27852 15.8998C0.930584 15.8998 0.572987 15.8804 0.244385 15.8418C2.17734 17.0789 4.46789 17.8037 6.93241 17.8037C14.9638 17.8037 19.3323 11.164 19.3323 5.40381C19.3323 5.22018 19.3323 5.02688 19.313 4.84325C20.1732 4.19571 20.9174 3.42253 21.4972 2.5527Z" fill="#D5EBFE"/>
</svg>
