<svg width="18" height="18" viewBox="0 0 18 18" fill="none" xmlns="http://www.w3.org/2000/svg">
<path fill-rule="evenodd" clip-rule="evenodd" d="M8.52454 17.0491C13.2325 17.0491 17.0491 13.2325 17.0491 8.52454C17.0491 3.81656 13.2325 0 8.52454 0C3.81656 0 0 3.81656 0 8.52454C0 13.2325 3.81656 17.0491 8.52454 17.0491ZM7.48674 11.3816L11.6291 8.97808C11.7091 8.93243 11.7755 8.86644 11.8218 8.78681C11.868 8.70718 11.8923 8.61674 11.8923 8.52466C11.8923 8.43258 11.868 8.34213 11.8218 8.2625C11.7755 8.18287 11.7091 8.11688 11.6291 8.07123L7.48674 5.66772C7.13455 5.46331 6.68406 5.71069 6.68406 6.12082V10.9278C6.68406 11.3386 7.1352 11.5854 7.48674 11.3816Z" fill="#EB4745"/>
</svg>
